<?xml version="1.0" encoding="UTF-8" standalone="no"?>
<!-- Created with Inkscape (http://www.inkscape.org/) -->

<svg
   width="1920"
   height="1080"
   viewBox="0 0 1920 1080"
   version="1.1"
   id="svg1"
   xmlns="http://www.w3.org/2000/svg"
   xmlns:svg="http://www.w3.org/2000/svg">
  <defs
     id="defs1" />
  <g
     id="layer1"
     style="display:inline">
    <rect
       style="display:inline;fill:#000000"
       id="rect1"
       width="1924.8025"
       height="1075.0126"
       x="-1.8926278"
       y="1.8926278" />
    <path
       d="m 456.86795,56.341864 q 13.83331,0 20.15712,5.434517 6.3238,5.434517 6.3238,15.315457 0,5.829755 -2.66786,10.967844 -2.56904,5.039279 -8.79403,8.20118 -6.12619,3.161901 -16.69879,3.161901 h -8.10237 v 27.469017 h -8.89285 V 56.341864 Z m -0.79048,7.608324 h -8.99165 v 27.864251 h 7.11427 q 10.07856,0 15.01903,-3.26071 4.94047,-3.26071 4.94047,-11.066653 0,-6.817849 -4.34761,-10.177369 -4.34761,-3.359519 -13.73451,-3.359519 z m 86.75461,36.361862 q 0,13.14165 -6.71904,20.35473 -6.62023,7.21309 -17.98331,7.21309 -7.01546,0 -12.54879,-3.1619 -5.43452,-3.26071 -8.59642,-9.38689 -3.1619,-6.225 -3.1619,-15.01903 0,-13.141653 6.62023,-20.25593 6.62023,-7.114277 17.98331,-7.114277 7.21309,0 12.64761,3.260711 5.53332,3.1619 8.59641,9.288083 3.1619,6.027374 3.1619,14.821413 z m -40.0178,0 q 0,9.38689 3.65594,14.92022 3.75476,5.43451 11.85713,5.43451 8.00356,0 11.75832,-5.43451 3.75476,-5.53333 3.75476,-14.92022 0,-9.386895 -3.75476,-14.722603 -3.75476,-5.335708 -11.85713,-5.335708 -8.10237,0 -11.75832,5.335708 -3.65594,5.335708 -3.65594,14.722603 z m 62.44749,26.57973 h -8.69522 V 51.796631 h 8.69522 z m 35.57134,0.98809 q -9.88094,0 -15.80951,-6.81785 -5.92856,-6.91666 -5.92856,-20.55235 0,-13.635701 5.92856,-20.552359 6.02738,-7.015468 15.90832,-7.015468 6.12618,0 9.97975,2.272617 3.95237,2.272616 6.42261,5.533326 h 0.59285 q -0.0988,-1.284522 -0.39523,-3.754757 -0.19762,-2.569045 -0.19762,-4.051186 V 51.796631 h 8.69523 v 75.095149 h -7.01547 l -1.28452,-7.11428 h -0.39524 q -2.37143,3.35952 -6.3238,5.73095 -3.95238,2.37142 -10.17737,2.37142 z m 1.38333,-7.21309 q 8.3988,0 11.75832,-4.54523 3.45833,-4.64404 3.45833,-13.93212 v -1.58095 q 0,-9.880944 -3.26071,-15.117843 -3.26071,-5.335707 -12.05475,-5.335707 -7.01547,0 -10.57261,5.632136 -3.45832,5.533326 -3.45832,14.920224 0,9.4857 3.45832,14.7226 3.55714,5.23689 10.67142,5.23689 z m 60.66895,-47.626127 q 9.68332,0 14.32736,4.248804 4.64405,4.248804 4.64405,13.536888 v 36.065435 h -6.3238 l -1.67976,-7.50952 H 673.458 q -3.45833,4.34762 -7.3119,6.42261 -3.75476,2.075 -10.47379,2.075 -7.21309,0 -11.95594,-3.75476 -4.74285,-3.85356 -4.74285,-11.95593 0,-7.90476 6.22499,-12.15356 6.22499,-4.347614 19.16902,-4.742852 l 8.99166,-0.296428 v -3.161901 q 0,-6.62023 -2.86547,-9.189274 -2.86548,-2.569045 -8.10238,-2.569045 -4.14999,0 -7.90475,1.284523 -3.75475,1.185712 -7.01547,2.766663 l -2.66785,-6.521421 q 3.45833,-1.877378 8.20118,-3.161901 4.74285,-1.383331 9.88094,-1.383331 z m 2.56905,28.259487 q -9.88094,0.39524 -13.73451,3.1619 -3.75476,2.76667 -3.75476,7.80595 0,4.44642 2.66786,6.52142 2.76666,2.07499 7.01546,2.07499 6.71904,0 11.16547,-3.65594 4.44642,-3.75476 4.44642,-11.4619 v -4.74285 z m 83.98809,-28.358297 q 9.4857,0 14.32736,4.644042 4.84166,4.545233 4.84166,14.821411 v 34.484484 h -8.59642 V 93.000152 q 0,-12.746413 -11.85712,-12.746413 -8.79404,0 -12.15356,4.94047 -3.35952,4.94047 -3.35952,14.228554 V 126.89178 H 723.9497 V 73.929937 h 7.01547 l 1.28452,7.213087 h 0.49405 q 2.56904,-4.149995 7.11428,-6.126183 4.54523,-2.074998 9.58451,-2.074998 z m 55.62969,0.09881 q 9.68332,0 14.32736,4.248804 4.64405,4.248804 4.64405,13.536888 v 36.065435 h -6.32381 l -1.67976,-7.50952 h -0.39523 q -3.45833,4.34762 -7.3119,6.42261 -3.75476,2.075 -10.4738,2.075 -7.21308,0 -11.95593,-3.75476 -4.74286,-3.85356 -4.74286,-11.95593 0,-7.90476 6.225,-12.15356 6.22499,-4.347614 19.16902,-4.742852 l 8.99166,-0.296428 v -3.161901 q 0,-6.62023 -2.86548,-9.189274 -2.86547,-2.569045 -8.10237,-2.569045 -4.14999,0 -7.90475,1.284523 -3.75476,1.185712 -7.01547,2.766663 l -2.66785,-6.521421 q 3.45833,-1.877378 8.20118,-3.161901 4.74285,-1.383331 9.88094,-1.383331 z m 2.56904,28.259487 q -9.88094,0.39524 -13.7345,3.1619 -3.75476,2.76667 -3.75476,7.80595 0,4.44642 2.66785,6.52142 2.76667,2.07499 7.01547,2.07499 6.71904,0 11.16546,-3.65594 4.44643,-3.75476 4.44643,-11.4619 v -4.74285 z M 928.8805,91.518011 q 0,10.967839 -3.75476,19.169029 -3.65594,8.10237 -10.86903,12.6476 -7.21309,4.54523 -17.8845,4.54523 -10.96785,0 -18.27974,-4.54523 -7.21309,-4.54523 -10.77023,-12.74641 -3.55713,-8.20118 -3.55713,-19.169028 0,-10.869035 3.55713,-18.971406 3.55714,-8.102371 10.77023,-12.647603 7.31189,-4.545233 18.37855,-4.545233 10.5726,0 17.78569,4.545233 7.21309,4.446423 10.86903,12.647603 3.75476,8.102371 3.75476,19.070215 z m -55.7285,0 q 0,13.339269 5.63213,21.046399 5.63214,7.60833 17.58808,7.60833 12.05475,0 17.58807,-7.60833 5.53333,-7.70713 5.53333,-21.046399 0,-13.339269 -5.53333,-20.848784 -5.53332,-7.608324 -17.48926,-7.608324 -11.95594,0 -17.68689,7.608324 -5.63213,7.509515 -5.63213,20.848784 z m 78.84992,35.373769 H 943.3067 V 51.796631 h 8.69522 z m 62.84278,-26.57973 q 0,13.14165 -6.7191,20.35473 -6.6202,7.21309 -17.98327,7.21309 -7.01547,0 -12.5488,-3.1619 -5.43452,-3.26071 -8.59642,-9.38689 -3.1619,-6.225 -3.1619,-15.01903 0,-13.141653 6.62023,-20.25593 6.62023,-7.114277 17.98331,-7.114277 7.21309,0 12.64765,3.260711 5.5333,3.1619 8.5964,9.288083 3.1619,6.027374 3.1619,14.821413 z m -40.01783,0 q 0,9.38689 3.65595,14.92022 3.75475,5.43451 11.85712,5.43451 8.00357,0 11.75836,-5.43451 3.7547,-5.53333 3.7547,-14.92022 0,-9.386895 -3.7547,-14.722603 -3.75479,-5.335708 -11.85716,-5.335708 -8.10238,0 -11.75832,5.335708 -3.65595,5.335708 -3.65595,14.722603 z M 1086.679,72.941843 q 8.9917,0 13.4381,4.644042 4.4464,4.545233 4.4464,14.821411 v 34.484484 h -8.5964 V 92.802533 q 0,-12.548794 -10.7702,-12.548794 -7.7071,0 -11.0667,4.446423 -3.2607,4.446423 -3.2607,12.944032 v 29.247586 h -8.5964 V 92.802533 q 0,-12.548794 -10.869,-12.548794 -8.0036,0 -11.0667,4.94047 -3.0631,4.94047 -3.0631,14.228554 v 27.469017 h -8.6952 V 73.929937 h 7.0155 l 1.2845,7.213087 h 0.494 q 2.4703,-4.149995 6.6203,-6.126183 4.2488,-2.074998 8.9916,-2.074998 12.45,0 16.2048,8.892847 h 0.494 q 2.6679,-4.545233 7.2131,-6.71904 4.644,-2.173807 9.7821,-2.173807 z m 80.3321,27.370207 q 0,13.14165 -6.7191,20.35473 -6.6202,7.21309 -17.9833,7.21309 -7.0155,0 -12.5488,-3.1619 -5.4345,-3.26071 -8.5964,-9.38689 -3.1619,-6.225 -3.1619,-15.01903 0,-13.141653 6.6202,-20.25593 6.6203,-7.114277 17.9833,-7.114277 7.2131,0 12.6476,3.260711 5.5334,3.1619 8.5965,9.288083 3.1619,6.027374 3.1619,14.821413 z m -40.0178,0 q 0,9.38689 3.6559,14.92022 3.7548,5.43451 11.8571,5.43451 8.0036,0 11.7583,-5.43451 3.7548,-5.53333 3.7548,-14.92022 0,-9.386895 -3.7548,-14.722603 -3.7547,-5.335708 -11.8571,-5.335708 -8.1024,0 -11.7583,5.335708 -3.6559,5.335708 -3.6559,14.722603 z m 98.0188,-26.382113 v 52.961843 h -7.1143 l -1.2845,-7.01547 h -0.3952 q -2.5691,4.14999 -7.1143,6.12618 -4.5453,1.87738 -9.6833,1.87738 -9.5846,0 -14.4262,-4.54523 -4.8417,-4.64404 -4.8417,-14.7226 V 73.929937 h 8.7941 v 34.089243 q 0,12.6476 11.7583,12.6476 8.794,0 12.1535,-4.94047 3.4584,-4.94047 3.4584,-14.22855 V 73.929937 Z m 38.0416,53.949933 q -7.0155,0 -12.5488,-2.86547 -5.4345,-2.86547 -8.5964,-8.89285 -3.0631,-6.02737 -3.0631,-15.41426 0,-9.782135 3.2607,-15.908318 3.2607,-6.126183 8.7941,-8.991656 5.6321,-2.865473 12.7464,-2.865473 4.0512,0 7.8059,0.889285 3.7548,0.790475 6.1262,1.976188 l -2.6679,7.213086 q -2.3714,-0.889284 -5.5333,-1.679759 -3.1619,-0.790476 -5.9286,-0.790476 -15.6118,0 -15.6118,20.058313 0,9.58451 3.7547,14.7226 3.8536,5.03928 11.3631,5.03928 4.3476,0 7.6083,-0.88929 3.3595,-0.88928 6.1262,-2.17381 v 7.70714 q -2.6678,1.38333 -5.9286,2.075 -3.1619,0.79047 -7.7071,0.79047 z m 34.7809,-36.855906 q 0,1.58095 -0.1976,4.149995 -0.099,2.569044 -0.1977,4.446423 h 0.3953 q 0.5928,-0.790475 1.7785,-2.272616 1.1858,-1.482141 2.3715,-2.964282 1.2845,-1.580951 2.1738,-2.569045 l 16.8964,-17.884502 h 10.1774 l -21.4417,22.627353 22.9238,30.33449 h -10.4738 l -18.3786,-24.70235 -6.0273,5.23689 v 19.46546 h -8.5964 V 51.796631 h 8.5964 z m 64.6214,-18.082121 q 6.8178,0 11.6595,2.964282 4.9405,2.964282 7.5095,8.3988 2.6679,5.335707 2.6679,12.548794 v 5.236901 h -36.2631 q 0.1976,8.99165 4.5452,13.7345 4.4465,4.64405 12.3512,4.64405 5.0393,0 8.8929,-0.88929 3.9523,-0.98809 8.1023,-2.76666 v 7.60832 q -4.0511,1.77857 -8.0035,2.56905 -3.9524,0.88928 -9.3869,0.88928 -7.5095,0 -13.3393,-3.06309 -5.7309,-3.06309 -8.9916,-9.09047 -3.1619,-6.12618 -3.1619,-14.92022 0,-8.695223 2.8654,-14.920215 2.9643,-6.224992 8.2012,-9.584512 5.3357,-3.35952 12.3512,-3.35952 z m -0.099,7.114277 q -6.225,0 -9.881,4.051186 -3.5571,3.952376 -4.2488,11.066653 h 26.975 q -0.099,-6.71904 -3.1619,-10.869034 -3.0631,-4.248805 -9.6833,-4.248805 z m 14.0309,-27.864251 q -1.1857,1.778569 -3.6559,4.644042 -2.4703,2.766663 -5.3357,5.632136 -2.7667,2.766663 -5.1381,4.545232 h -5.731 v -1.185713 q 1.4822,-1.877378 3.1619,-4.446423 1.7786,-2.569044 3.4583,-5.236898 1.6798,-2.766663 2.7667,-4.94047 h 10.4738 z"
       id="text1"
       style="font-size:98.8094px;fill:#ffffff;stroke:#ffffff;stroke-width:8.23412"
       aria-label="Polda na Olomoucké" />
    <rect
       style="fill:#ffffff;fill-opacity:1;stroke:#ffffff;stroke-width:1.12632;stroke-opacity:1"
       id="rect3"
       width="360.24258"
       height="141.73242"
       x="626.38287"
       y="512.62823" />
    <path
       d="m 729.70945,625.00714 h -9.94212 V 588.2213 h -40.43129 v 36.78584 h -9.94212 v -78.87415 h 9.94212 v 33.36133 h 40.43129 v -33.36133 h 9.94212 z m 47.83256,-60.31553 q 1.65702,0 3.53498,0.22094 1.98842,0.11047 3.42451,0.44187 l -1.21515,8.94791 q -1.43608,-0.33141 -3.20357,-0.55234 -1.65702,-0.22094 -3.20357,-0.22094 -4.52919,0 -8.50604,2.54077 -3.97685,2.43029 -6.40715,6.95948 -2.31982,4.41872 -2.31982,10.38399 v 31.59385 h -9.72119 v -59.21085 h 7.9537 l 1.10468,10.82587 h 0.44187 q 2.87217,-4.8606 7.40136,-8.39557 4.52919,-3.53498 10.71539,-3.53498 z m 38.22189,0.11047 q 10.82587,0 16.01786,4.75012 5.192,4.75013 5.192,15.13412 v 40.32082 h -7.06995 l -1.87796,-8.39557 h -0.44187 q -3.86638,4.8606 -8.17463,7.18042 -4.19779,2.31983 -11.70961,2.31983 -8.06416,0 -13.36663,-4.19778 -5.30246,-4.30826 -5.30246,-13.36663 0,-8.83744 6.95948,-13.58757 6.95949,-4.86059 21.43079,-5.30246 l 10.05259,-0.3314 V 585.791 q 0,-7.40136 -3.20357,-10.27352 -3.20357,-2.87217 -9.05838,-2.87217 -4.63965,0 -8.83744,1.43608 -4.19778,1.32562 -7.84322,3.09311 l -2.98264,-7.29089 q 3.86638,-2.09889 9.16884,-3.53498 5.30247,-1.54655 11.0468,-1.54655 z m 2.87217,31.59385 q -11.0468,0.44187 -15.35505,3.53497 -4.19778,3.09311 -4.19778,8.72698 0,4.97106 2.98263,7.29088 3.09311,2.31983 7.84323,2.31983 7.51182,0 12.48288,-4.08731 4.97106,-4.19779 4.97106,-12.81429 v -5.30247 z m 12.70382,-54.9026 q -1.32561,1.98843 -4.08731,5.192 -2.7617,3.0931 -5.96528,6.29667 -3.0931,3.09311 -5.74433,5.08153 h -6.40715 v -1.32561 q 1.65702,-2.0989 3.53498,-4.97106 1.98842,-2.87217 3.86638,-5.85481 1.87796,-3.0931 3.0931,-5.5234 h 11.70961 z m 43.74542,76.66479 q 2.20936,0 4.52918,-0.3314 2.31983,-0.44187 3.75592,-0.88374 v 7.40135 q -1.54656,0.77328 -4.41872,1.21515 -2.87217,0.55234 -5.5234,0.55234 -4.63966,0 -8.61651,-1.54655 -3.86638,-1.65702 -6.29667,-5.63387 -2.4303,-3.97685 -2.4303,-11.15727 v -34.46601 h -8.39557 v -4.63966 l 8.50604,-3.86638 3.86638,-12.59335 h 5.74433 v 13.58756 h 17.12254 v 7.51183 h -17.12254 v 34.24508 q 0,5.41293 2.54077,8.06416 2.65123,2.54076 6.73855,2.54076 z"
       id="text3"
       style="font-size:110.468px;stroke-width:9.20563"
       aria-label="Hrát" />
    <rect
       style="fill:#ffffff;fill-opacity:1;stroke:#ffffff;stroke-width:1.12632;stroke-opacity:1"
       id="rect4"
       width="360.24258"
       height="141.73242"
       x="626.38287"
       y="697.15942" />
    <path
       d="m 727.05822,809.53833 h -11.70961 l -27.9484,-37.66959 -8.06417,7.06995 v 30.59964 h -9.94212 v -78.87415 h 9.94212 v 38.88473 q 3.31404,-3.75591 6.73855,-7.51182 3.42451,-3.75591 6.84902,-7.51183 l 21.32032,-23.86108 h 11.59914 l -31.26244,34.35555 z m 60.86782,-29.71589 q 0,14.69224 -7.51183,22.75641 -7.40135,8.06416 -20.10517,8.06416 -7.84323,0 -14.02944,-3.53498 -6.07574,-3.64544 -9.61072,-10.49446 -3.53497,-6.95948 -3.53497,-16.79113 0,-14.69225 7.40135,-22.64594 7.40136,-7.9537 20.10518,-7.9537 8.06416,0 14.1399,3.64544 6.18621,3.53498 9.61072,10.384 3.53498,6.73855 3.53498,16.5702 z m -44.73955,0 q 0,10.49446 4.08732,16.68067 4.19779,6.07574 13.25616,6.07574 8.94791,0 13.14569,-6.07574 4.19779,-6.18621 4.19779,-16.68067 0,-10.49446 -4.19779,-16.45973 -4.19778,-5.96528 -13.25616,-5.96528 -9.05837,0 -13.14569,5.96528 -4.08732,5.96527 -4.08732,16.45973 z m 88.5953,-30.59964 q 10.60493,0 16.01786,5.192 5.41293,5.08153 5.41293,16.5702 v 38.55333 h -9.61071 v -37.89052 q 0,-14.25038 -13.25616,-14.25038 -9.83166,0 -13.58757,5.5234 -3.75591,5.5234 -3.75591,15.9074 v 30.7101 h -9.72118 v -59.21085 h 7.84322 l 1.43609,8.06417 h 0.55234 q 2.87217,-4.63966 7.95369,-6.84902 5.08153,-2.31983 10.7154,-2.31983 z m 62.63536,0 q 7.62229,0 13.03522,3.31404 5.5234,3.31404 8.39557,9.38978 2.98264,5.96527 2.98264,14.02944 v 5.8548 h -40.54176 q 0.22094,10.05259 5.08153,15.35505 4.97106,5.192 13.8085,5.192 5.63387,0 9.94212,-0.99421 4.41872,-1.10468 9.05838,-3.09311 v 8.50604 q -4.52919,1.98842 -8.94791,2.87217 -4.41872,0.99421 -10.49446,0.99421 -8.39557,0 -14.91318,-3.42451 -6.40715,-3.42451 -10.05259,-10.16305 -3.53498,-6.84902 -3.53498,-16.68067 0,-9.72119 3.20357,-16.68067 3.31404,-6.95949 9.16885,-10.7154 5.96527,-3.75591 13.8085,-3.75591 z m -0.11047,7.9537 q -6.95948,0 -11.0468,4.52919 -3.97685,4.41872 -4.75012,12.37241 h 30.15776 q -0.11047,-7.51182 -3.53498,-12.15148 -3.4245,-4.75012 -10.82586,-4.75012 z m 63.29808,53.46651 q -7.84323,0 -14.02944,-3.20357 -6.07574,-3.20357 -9.61072,-9.94212 -3.4245,-6.73855 -3.4245,-17.23301 0,-10.93633 3.64544,-17.78535 3.64544,-6.84902 9.83165,-10.05259 6.29668,-3.20357 14.25037,-3.20357 4.52919,0 8.72698,0.99421 4.19778,0.88375 6.84901,2.20936 l -2.98263,8.06417 q -2.65124,-0.99421 -6.18621,-1.87796 -3.53498,-0.88374 -6.62808,-0.88374 -17.45395,0 -17.45395,22.425 0,10.7154 4.19779,16.45973 4.30825,5.63387 12.70382,5.63387 4.86059,0 8.50603,-0.99421 3.75592,-0.99421 6.84902,-2.4303 v 8.61651 q -2.98264,1.54655 -6.62808,2.31983 -3.53498,0.88374 -8.6165,0.88374 z"
       id="text4"
       style="font-size:110.468px;stroke-width:9.20563"
       aria-label="Konec" />
  </g>
</svg>
