<?xml version="1.0" encoding="UTF-8" standalone="no"?>
<!-- Created with Inkscape (http://www.inkscape.org/) -->

<svg
   width="33.150074mm"
   height="7.0624404mm"
   viewBox="0 0 33.150072 7.0624405"
   version="1.1"
   id="svg1"
   inkscape:export-filename="Basketbalový míč.svg"
   inkscape:export-xdpi="96"
   inkscape:export-ydpi="96"
   sodipodi:docname="Pravítko.svg"
   inkscape:version="1.4.2 (f4327f4, 2025-05-13)"
   xmlns:inkscape="http://www.inkscape.org/namespaces/inkscape"
   xmlns:sodipodi="http://sodipodi.sourceforge.net/DTD/sodipodi-0.dtd"
   xmlns="http://www.w3.org/2000/svg"
   xmlns:svg="http://www.w3.org/2000/svg">
  <sodipodi:namedview
     id="namedview1"
     pagecolor="#ffffff"
     bordercolor="#000000"
     borderopacity="0.25"
     inkscape:showpageshadow="2"
     inkscape:pageopacity="0.0"
     inkscape:pagecheckerboard="0"
     inkscape:deskcolor="#d1d1d1"
     inkscape:document-units="mm"
     inkscape:zoom="2"
     inkscape:cx="58"
     inkscape:cy="-55"
     inkscape:window-width="958"
     inkscape:window-height="1000"
     inkscape:window-x="953"
     inkscape:window-y="0"
     inkscape:window-maximized="0"
     inkscape:current-layer="layer1"
     showguides="true">
    <inkscape:page
       x="3.7943014e-14"
       y="3.8221938e-08"
       width="33.15007"
       height="7.0624404"
       id="page2"
       margin="0"
       bleed="0" />
    <sodipodi:guide
       position="12.004383,4.7416085"
       orientation="0,-1"
       id="guide40"
       inkscape:locked="false" />
    <sodipodi:guide
       position="15.028593,5.0048745"
       orientation="0,-1"
       id="guide42"
       inkscape:locked="false" />
    <sodipodi:guide
       position="17.91829,5.0094395"
       orientation="0,-1"
       id="guide43"
       inkscape:locked="false" />
  </sodipodi:namedview>
  <defs
     id="defs1" />
  <g
     inkscape:label="Vrstva 1"
     inkscape:groupmode="layer"
     id="layer1"
     transform="translate(-49.275967,-130.75385)">
    <g
       id="g46"
       inkscape:label="Pravítko"
       transform="matrix(2.8652799,0,0,2.8361518,-111.35849,-238.97772)">
      <path
         style="display:inline;fill:#ffde35;fill-opacity:1;stroke:#000000;stroke-width:0.313109"
         d="m 56.219231,130.52037 h 11.256186 v 2.17704 H 56.223125 Z"
         id="path1"
         sodipodi:nodetypes="ccccc"
         inkscape:label="Pravítko" />
      <g
         id="g16"
         inkscape:label="Čárky">
        <path
           id="path40"
           style="fill:#ffffff;stroke:#000000;stroke-width:0.188;stroke-dasharray:none"
           d="m 63.962076,130.60806 v 0.78692 m 0.284633,-0.78692 v 0.78692 m 0.2887,-0.78692 v 0.78692 m 0.284633,-0.78692 v 0.78692 m -1.2522,-0.78692 v 1.18351 m -0.363984,-1.18351 v 0.78692 m -0.284633,-0.78692 v 0.78692 m -0.2887,-0.78692 v 0.78692 m -0.284633,-0.78692 v 0.78692 m -0.398487,-0.78692 v 1.17886 m -1.251593,-1.17886 v 0.78692 m 0.284633,-0.78692 v 0.78692 m 0.2887,-0.78692 v 0.78692 m 0.284633,-0.78692 v 0.78692 m -2.594606,-0.78692 v 0.78692 m 0.284633,-0.78692 v 0.78692 m 0.2887,-0.78692 v 0.78692 m 0.284633,-0.78692 v 0.78692 m 0.398487,-0.78692 v 1.45378 m -1.650687,-1.45378 v 1.18351 m -0.363984,-1.18351 v 0.78692 m -0.284633,-0.78692 v 0.78692 m -0.2887,-0.78692 v 0.78692 m -0.284633,-0.78692 v 0.78692 m -0.398487,-0.78692 v 1.45378"
           sodipodi:nodetypes="cccccccccccccccccccccccccccccccccccccccccccccccccc" />
        <path
           id="path41"
           style="fill:#ffffff;stroke:#000000;stroke-width:0.188;stroke-dasharray:none"
           d="m 63.962076,130.60806 v 0.78692 m 0.284633,-0.78692 v 0.78692 m 0.2887,-0.78692 v 0.78692 m 0.284633,-0.78692 v 0.78692 m -1.2522,-0.70941 v 1.37368 m -0.363984,-1.45119 v 0.78692 m -0.284633,-0.78692 v 0.78692 m -0.2887,-0.78692 v 0.78692 m -0.284633,-0.78692 v 0.78692 m -1.65008,-0.78692 v 0.78692 m 0.284633,-0.78692 v 0.78692 m 0.2887,-0.78692 v 0.78692 m 0.284633,-0.78692 v 0.78692 m -2.594606,-0.78692 v 0.78692 m 0.284633,-0.78692 v 0.78692 m 0.2887,-0.78692 v 0.78692 m 0.284633,-0.78692 v 0.78692 m 0.398487,-0.78692 v 1.45378 m -1.650687,-1.45378 v 1.18351 m -0.363984,-1.18351 v 0.78692 m -0.284633,-0.78692 v 0.78692 m -0.2887,-0.78692 v 0.78692 m -0.284633,-0.78692 v 0.78692 m -0.398487,-0.78692 v 1.45378"
           sodipodi:nodetypes="cccccccccccccccccccccccccccccccccccccccccccccccc" />
        <path
           id="path42"
           style="fill:#ffffff;stroke:#000000;stroke-width:0.188;stroke-dasharray:none"
           d="m 66.820226,130.60806 v 1.45016 m -0.363984,-1.45016 v 0.78692 m -0.284633,-0.78692 v 0.78692 m -0.2887,-0.78692 v 0.78692 m -0.284633,-0.78692 v 0.78692 m -0.398487,-0.78692 v 1.19069"
           sodipodi:nodetypes="cccccccccccc" />
      </g>
      <text
         xml:space="preserve"
         style="font-size:0.495037px;font-family:Bahnschrift;-inkscape-font-specification:'Bahnschrift 12';text-align:start;writing-mode:lr-tb;direction:ltr;text-anchor:start;fill:#000000;fill-opacity:1;stroke:#000000;stroke-width:0.00942181;stroke-dasharray:none;stroke-opacity:1"
         x="56.799618"
         y="132.46742"
         id="text43"><tspan
           sodipodi:role="line"
           id="tspan43"
           style="fill:#000000;fill-opacity:1;stroke:#000000;stroke-width:0.00942181;stroke-opacity:1"
           x="56.799618"
           y="132.46742">0</tspan></text>
      <text
         xml:space="preserve"
         style="font-size:0.495037px;font-family:Bahnschrift;-inkscape-font-specification:'Bahnschrift 12';text-align:start;writing-mode:lr-tb;direction:ltr;text-anchor:start;fill:#000000;fill-opacity:1;stroke:#000000;stroke-width:0.00942181;stroke-dasharray:none;stroke-opacity:1"
         x="59.994659"
         y="132.46742"
         id="text44"><tspan
           sodipodi:role="line"
           id="tspan44"
           style="fill:#000000;fill-opacity:1;stroke:#000000;stroke-width:0.00942181;stroke-opacity:1"
           x="59.994659"
           y="132.46742">10</tspan></text>
      <text
         xml:space="preserve"
         style="font-size:0.495037px;font-family:Bahnschrift;-inkscape-font-specification:'Bahnschrift 12';text-align:start;writing-mode:lr-tb;direction:ltr;text-anchor:start;fill:#000000;fill-opacity:1;stroke:#000000;stroke-width:0.00942181;stroke-dasharray:none;stroke-opacity:1"
         x="63.317764"
         y="132.46742"
         id="text45"><tspan
           sodipodi:role="line"
           id="tspan45"
           style="fill:#000000;fill-opacity:1;stroke:#000000;stroke-width:0.00942181;stroke-opacity:1"
           x="63.317764"
           y="132.46742">20</tspan></text>
      <text
         xml:space="preserve"
         style="font-size:0.495037px;font-family:Bahnschrift;-inkscape-font-specification:'Bahnschrift 12';text-align:start;writing-mode:lr-tb;direction:ltr;text-anchor:start;fill:#000000;fill-opacity:1;stroke:#000000;stroke-width:0.00942181;stroke-dasharray:none;stroke-opacity:1"
         x="66.54422"
         y="132.46742"
         id="text46"><tspan
           sodipodi:role="line"
           id="tspan46"
           style="fill:#000000;fill-opacity:1;stroke:#000000;stroke-width:0.00942181;stroke-opacity:1"
           x="66.54422"
           y="132.46742">30</tspan></text>
    </g>
  </g>
</svg>
