<?xml version="1.0" encoding="UTF-8" standalone="no"?>
<!-- Created with Inkscape (http://www.inkscape.org/) -->

<svg
   width="1920"
   height="1080"
   viewBox="0 0 1920 1080"
   version="1.1"
   id="svg1"
   sodipodi:docname="Room1-rosviceno.svg"
   inkscape:version="1.4.2 (f4327f4, 2025-05-13)"
   inkscape:export-filename="Room1-rosviceno.svg"
   inkscape:export-xdpi="96"
   inkscape:export-ydpi="96"
   xmlns:inkscape="http://www.inkscape.org/namespaces/inkscape"
   xmlns:sodipodi="http://sodipodi.sourceforge.net/DTD/sodipodi-0.dtd"
   xmlns="http://www.w3.org/2000/svg"
   xmlns:svg="http://www.w3.org/2000/svg">
  <sodipodi:namedview
     id="namedview1"
     pagecolor="#ffffff"
     bordercolor="#000000"
     borderopacity="0.25"
     inkscape:showpageshadow="2"
     inkscape:pageopacity="0.0"
     inkscape:pagecheckerboard="0"
     inkscape:deskcolor="#d1d1d1"
     inkscape:zoom="0.5"
     inkscape:cx="650"
     inkscape:cy="343"
     inkscape:window-width="1920"
     inkscape:window-height="1009"
     inkscape:window-x="-8"
     inkscape:window-y="-8"
     inkscape:window-maximized="1"
     inkscape:current-layer="layer1"
     showguides="true">
    <inkscape:page
       x="0"
       y="0"
       width="1920"
       height="1080"
       id="page2"
       margin="0"
       bleed="0" />
    <sodipodi:guide
       position="1248.5,700.25"
       orientation="0,-1"
       id="guide1"
       inkscape:locked="false" />
    <sodipodi:guide
       position="1259.5,771"
       orientation="1,0"
       id="guide2"
       inkscape:locked="false" />
  </sodipodi:namedview>
  <defs
     id="defs1" />
  <g
     id="layer1"
     style="display:inline"
     transform="translate(0.68285885,1.3057196)">
    <path
       style="display:inline;fill:#dacfb2;fill-opacity:1;stroke:#000000;stroke-width:2;stroke-dasharray:none;stroke-opacity:1"
       d="M -2.1870199,1076.9645 -0.73392289,-1.393946 C 161.84186,55.869256 310.55625,176.33133 486.9934,170.39565 l 664.934,-0.15032 379.2725,0.90761 389.0834,-167.652955 -1.2351,1075.656315 z"
       id="path6"
       inkscape:label="zdi" />
    <path
       style="display:inline;fill:#875938;fill-opacity:1;stroke:#000000;stroke-width:2;stroke-dasharray:none;stroke-opacity:1"
       d="M -2.8327023,1078.9892 489.81715,684.65212 c 363.25505,-0.44999 -129.04467,-2.79261 1030.32605,-3.2426 l 401.9098,397.25418 z"
       id="path1"
       inkscape:label="podlaha" />
    <path
       style="display:inline;fill:#dbd1af;fill-opacity:1;stroke:#000000;stroke-width:2"
       d="M 7.8622723,-0.5859375 268.21383,117.57813 267.04196,89.648438 400.44039,80.859375 474.85446,162.69531 v 7.8125 L 1540.2841,171.28906 1928.5654,4.296875 V 0 Z"
       id="path4"
       transform="translate(-8.8388348)"
       inkscape:label="strop" />
    <g
       id="g89"
       transform="translate(-6.7900067)"
       style="display:inline"
       inkscape:label="katedra">
      <path
         style="display:inline;fill:#7a3e12;fill-opacity:1;stroke:#000000;stroke-width:2.00928;stroke-dasharray:none;stroke-opacity:1"
         d="m 435.88106,639.70437 32.4914,-32.16572 h 232.45995 l 19.5587,33.5371 z"
         id="path89" />
      <path
         style="display:inline;fill:#ac4400;fill-opacity:1;stroke:#000000;stroke-width:2.05963;stroke-dasharray:none;stroke-opacity:1"
         d="m 585.60321,607.05363 0.55183,-31.67065 55.45873,0.87974 -1.10367,31.3774 z"
         id="path90" />
      <g
         id="g34"
         style="display:inline;fill:#ffffff;fill-opacity:1"
         transform="translate(2.7621358,3.3145629)">
        <rect
           style="display:inline;fill:#404040;fill-opacity:1;stroke:#000000;stroke-width:2.42449"
           id="rect1"
           width="88.378998"
           height="63.632534"
           x="570.24377"
           y="541.25464" />
        <path
           style="display:inline;fill:#404040;fill-opacity:1;stroke:#000000;stroke-width:3.77953;stroke-linecap:square"
           d="m 585.02037,634.32449 h 56.62378 l 0.14307,-7.49211 h -56.78505 z"
           id="path32" />
        <path
           style="display:inline;fill:#404040;fill-opacity:1;stroke:#000000;stroke-width:3.77953;stroke-linecap:square"
           d="m 599.9359,626.59051 9.94369,-35.35534 h 8.14831 l 9.46363,35.61257 z"
           id="path34" />
      </g>
      <path
         style="display:inline;fill:#5b3318;fill-opacity:1;stroke:#000000;stroke-width:1.74429;stroke-dasharray:none;stroke-opacity:1"
         d="m 447.74643,778.57372 3.51924,-137.69672 286.19211,0.55998 -2.73829,136.54303 z"
         id="path88" />
    </g>
    <g
       id="g93"
       transform="translate(-8.8388348)"
       style="display:inline"
       inkscape:label="okno">
      <path
         style="fill:#aadde9;fill-opacity:1;stroke:#000000;stroke-width:2;stroke-dasharray:none;stroke-opacity:1"
         d="M 245.29967,684.13942 46.771474,776.01709 46.219046,610.98446 243.23827,559.06817 Z"
         id="path91" />
      <path
         style="fill:#aadde9;fill-opacity:1;stroke:#000000;stroke-width:2.00003;stroke-dasharray:none;stroke-opacity:1"
         d="M 46.402402,610.15895 47.254754,17.115549 244.50417,88.816166 242.68519,558.78254 Z"
         id="path92" />
      <path
         style="fill:#ffffff;fill-opacity:1;stroke:#000000;stroke-width:2;stroke-dasharray:none;stroke-opacity:1"
         d="M 47.789858,775.64228 74.957463,789.97086 263.49625,697.55947 244.6132,684.46302 Z"
         id="path93" />
      <g
         id="g103"
         transform="translate(8.4245144,-0.82864076)">
        <path
           style="fill:#ffffff;fill-opacity:1;stroke:#000000;stroke-width:2;stroke-dasharray:none;stroke-opacity:1"
           d="M 66.875761,790.57068 37.288834,818.69707 Z"
           id="path95" />
        <path
           style="fill:#ffffff;fill-opacity:1;stroke:#000000;stroke-width:2;stroke-dasharray:none;stroke-opacity:1"
           d="m 255.97582,697.47075 -13.28125,23.82813 z"
           id="path96" />
        <path
           style="fill:#ffffff;fill-opacity:1;stroke:#000000;stroke-width:2;stroke-dasharray:none;stroke-opacity:1"
           d="m 37.487136,818.92263 0.611666,-43.0378 z"
           id="path98" />
        <path
           style="fill:#ffffff;fill-opacity:1;stroke:#000000;stroke-width:2;stroke-dasharray:none;stroke-opacity:1"
           d="m 236.52344,684.96094 c 0.39062,1.95313 6.05469,35.74219 6.05469,35.74219 z"
           id="path99" />
      </g>
    </g>
    <g
       id="g14"
       transform="translate(-12.04461,-1.33829)"
       style="display:inline"
       inkscape:label="celá tabule">
      <g
         id="g18">
        <path
           style="fill:#c8c8c8;fill-opacity:1;stroke:#000000;stroke-width:1.54993;stroke-dasharray:none;stroke-opacity:1"
           d="m 842.32068,172.11719 -0.57115,511.34822 37.71319,-0.11829 1.50558,-509.83749 z"
           id="path10" />
        <path
           style="fill:#c8c8c8;fill-opacity:1;stroke:#000000;stroke-width:1.52958;stroke-dasharray:none;stroke-opacity:1"
           d="m 1172.6798,172.48938 0.6691,232.76282 v 277.79098 l 36.2766,0.11829 -0.1183,-511.77111 z"
           id="path11" />
      </g>
      <g
         id="g17"
         transform="translate(0,59.662135)"
         style="fill:#ffffff;fill-opacity:1;stroke-width:2;stroke-dasharray:none"
         inkscape:label="křídla tabule">
        <path
           style="display:inline;fill:#eaeae5;fill-opacity:1;stroke:#000000;stroke-width:2;stroke-dasharray:none"
           d="m 926.14161,483.17718 -0.39062,27.34375 h 203.90631 l -0.7813,-26.17187 z"
           id="path177" />
        <path
           style="fill:#003905;fill-opacity:1;stroke:#000000;stroke-width:2;stroke-dasharray:none;stroke-opacity:1"
           d="m 840.4461,485.76912 -149.70573,34.79051 -0.47316,-278.73505 151.51718,-0.94632 z"
           id="path13" />
        <path
           style="fill:#003905;fill-opacity:1;stroke:#000000;stroke-width:2;stroke-dasharray:none;stroke-opacity:1"
           d="m 1209.6377,486.4684 h 187.4338 l 1.4195,-245.45443 -188.7763,-0.27471 z"
           id="path14" />
        <path
           style="display:inline;fill:#eaeae5;fill-opacity:1;stroke:#000000;stroke-width:2;stroke-dasharray:none;stroke-opacity:1"
           d="m 841.46568,240.80273 h 368.33252 l -0.2629,245.44086 -369.17906,-0.35513 z"
           id="path12" />
      </g>
    </g>
    <g
       id="g82"
       transform="matrix(1.30329,0,0,1.30329,-600.07093,-273.16109)"
       style="display:inline"
       inkscape:label="kout s umyvadlem">
      <path
         style="display:inline;fill:none;fill-opacity:1;stroke:#000000;stroke-width:1.53458;stroke-dasharray:none;stroke-opacity:1"
         d="m 1626.7478,733.42705 -0.029,-203.21097 98.9426,60.69361 0.2453,238.57685"
         id="path21" />
      <path
         style="fill:#888888;fill-opacity:1;stroke:#000000;stroke-width:1.53458;stroke-dasharray:none;stroke-opacity:1"
         d="m 1665.1122,683.00821 c 0,0 -2.3599,20.33069 -1.6337,22.50898 0.7261,2.17828 15.1572,1.72448 15.1572,1.72448 l -0.2723,-4.62887 c 0,0 -3.9028,0 -7.3517,-0.27229 -3.2774,-0.25875 -1.9967,-17.15402 -1.9967,-17.15402 z"
         id="path23" />
      <path
         id="path24"
         style="fill:#ffffff;stroke:#000000;stroke-width:1.97177"
         d="m 1695.2984,669.54168 c 0,4.97234 -13.7255,9.92278 -18.0152,12.3695 -4.2897,2.44672 -11.5493,2.9185 -15.771,0.35407 -4.2217,-2.56443 -18.9106,-8.31259 -18.7756,-13.28306 l 27.8213,0.92253 z" />
      <path
         style="fill:#bebebe;fill-opacity:1;stroke:#000000;stroke-width:1.53458;stroke-dasharray:none;stroke-opacity:1"
         d="m 1673.0085,669.21237 0.363,-7.44249 c 0,0 0.3631,-0.7261 -1.8152,-0.7261 -2.1783,0 -4.175,2.54134 -4.175,2.54134 l -4.3566,-0.36304 c 0,0 2.3842,-5.77459 6.5348,-6.35335 4.794,-0.66847 9.0126,-0.13596 8.9854,-0.0908 l -0.4537,12.61593 z"
         id="path26" />
    </g>
    <g
       id="g104"
       style="display:inline"
       transform="matrix(0.9980851,-0.00557583,0.00702443,1.170366,-1.5289974,-145.43625)"
       inkscape:label="dveře">
      <path
         style="display:inline;fill:#755945;fill-opacity:1;stroke:#000000;stroke-width:2;stroke-dasharray:none;stroke-opacity:1"
         d="m 1425.4674,840.31555 -12.0421,-10.29716 9.7652,-391.52933 114.3525,50.5471 -3.9698,442.60153 z"
         id="path56"
         transform="translate(243.06795)" />
      <path
         style="fill:#5f381d;fill-opacity:1;stroke:#000000;stroke-width:1.86063;stroke-dasharray:none;stroke-opacity:1"
         d="m 1669.1476,840.83832 c 1.9118,-8.8422 3.9545,-388.10713 3.9545,-388.10713 l 94.1398,44.58809 -5.609,422.89425 z"
         id="path100" />
      <ellipse
         style="fill:#ffffff;fill-opacity:1;stroke:#000000;stroke-width:2.63687;stroke-dasharray:none;stroke-opacity:1"
         id="path103"
         cx="1754.9231"
         cy="715.04791"
         rx="9.2109337"
         ry="14.251831" />
      <path
         style="fill:#ffffff;fill-opacity:1;stroke:#000000;stroke-width:2.24501;stroke-dasharray:none;stroke-opacity:1"
         d="m 1765.3043,684.27454 -31.7647,-6.63735 -2.6333,30.45787 10.8814,0.25234 1.9311,-18.73379 22.2595,4.8464 z"
         id="path101" />
      <path
         style="fill:#ffffff;fill-opacity:1;stroke:#000000;stroke-width:1.68493;stroke-dasharray:none;stroke-opacity:1"
         d="m 1753.1713,710.20952 c 0.035,-5.21035 3.004,-4.51137 4.2227,-4.057 0.6449,0.24046 -0.9712,8.586 -0.7499,9.43701 0.6002,2.30851 2.5111,4.46378 2.5111,4.46378 l -8.7887,-0.7763 2.511,-2.91116 0.2909,-6.20258"
         id="path102" />
    </g>
    <g
       id="g86"
       style="display:inline"
       inkscape:label="zářivky">
      <g
         id="g137"
         transform="translate(-162.41359)">
        <g
           id="g136"
           transform="translate(237.26747)">
          <path
             style="display:inline;fill:#ffffff;fill-opacity:1;stroke:#000000;stroke-width:2.03787;stroke-dasharray:none;stroke-opacity:1"
             d="m 648.56842,68.422414 v 48.576396 l 285.84323,0.19375 V 67.701576 Z"
             id="path104"
             transform="translate(-237.26747)" />
          <path
             id="rect113"
             style="display:inline;fill:#ffffff;fill-opacity:1;stroke:#000000;stroke-width:2.01365;stroke-dasharray:none;stroke-opacity:1"
             d="m 648.73781,68.853516 v 23.376953 h 23.0332 V 68.853516 Z m 23.63281,0 v 23.376953 h 23.0332 V 68.853516 Z m 23.82813,0 v 23.376953 h 23.0332 V 68.853516 Z m 23.63281,0 v 23.376953 h 23.0332 V 68.853516 Z m 23.09375,0 v 23.376953 h 23.0332 V 68.853516 Z m 23.63281,0 v 23.376953 h 23.0332 V 68.853516 Z m 23.82813,0 v 23.376953 h 23.0332 V 68.853516 Z m 23.63281,0 v 23.376953 h 23.0332 V 68.853516 Z m 23.92383,0 v 23.376953 h 23.0332 V 68.853516 Z m 23.63281,0 v 23.376953 h 23.0332 V 68.853516 Z m 24.42969,0 v 23.376953 h 23.0332 V 68.853516 Z m 23.63281,0 v 23.376953 h 23.0332 V 68.853516 Z M 648.83546,93.023438 v 23.376952 h 23.03321 V 93.023438 Z m 23.63282,0 v 23.376952 h 23.0332 V 93.023438 Z m 23.82812,0 v 23.376952 h 23.03321 V 93.023438 Z m 23.63281,0 v 23.376952 h 23.03321 V 93.023438 Z m 23.09375,0 v 23.376952 h 23.03321 V 93.023438 Z m 23.63282,0 v 23.376952 h 23.0332 V 93.023438 Z m 23.82812,0 v 23.376952 h 23.03321 V 93.023438 Z m 23.63281,0 v 23.376952 h 23.03321 V 93.023438 Z m 23.92383,0 v 23.376952 h 23.03321 V 93.023438 Z m 23.63282,0 v 23.376952 h 23.0332 V 93.023438 Z m 24.42968,0 v 23.376952 h 23.03321 V 93.023438 Z m 23.63282,0 v 23.376952 h 23.0332 V 93.023438 Z"
             transform="translate(-237.26747)" />
        </g>
        <path
           style="fill:#d6cfac;fill-opacity:1;stroke:#000000;stroke-width:2;stroke-dasharray:none;stroke-opacity:1"
           d="m 948.87255,51.342216 0.39553,63.603084 -13.55186,2.20981 -0.39062,-49.620888 z"
           id="path186" />
        <path
           style="fill:#e6e0c9;fill-opacity:1;stroke:#000000;stroke-width:2;stroke-dasharray:none;stroke-opacity:1"
           d="m 458.70817,116.96012 c 0,0 -15.90858,0.26517 -15.82871,-0.0348 0.60018,-2.25405 0.39063,-68.764034 0.39063,-68.764034 l 15.24276,21.289063 -0.1953,47.900391"
           id="path187"
           transform="translate(190.03495)" />
        <path
           style="fill:#000000;fill-opacity:1;stroke:#000000;stroke-width:2;stroke-dasharray:none;stroke-opacity:1"
           d="m 632.32196,46.058616 317.5065,3.647983 z"
           id="path2" />
      </g>
      <g
         id="g29"
         transform="translate(243.06795)">
        <g
           id="g10"
           transform="translate(47.460938)">
          <path
             style="display:inline;fill:#ffffff;fill-opacity:1;stroke:#000000;stroke-width:2.03787;stroke-dasharray:none;stroke-opacity:1"
             d="m 648.56842,68.422414 v 48.576396 l 285.84323,0.19375 V 67.701576 Z"
             id="path3"
             transform="translate(-47.460938)" />
          <path
             id="rect23"
             style="display:inline;fill:#ffffff;fill-opacity:1;stroke:#000000;stroke-width:2.01365;stroke-dasharray:none;stroke-opacity:1"
             d="m 411.46927,68.853516 v 23.376953 h 23.0332 V 68.853516 Z m 23.63281,0 v 23.376953 h 23.03321 V 68.853516 Z m 23.82813,0 v 23.376953 h 23.0332 V 68.853516 Z m 23.63281,0 v 23.376953 h 23.0332 V 68.853516 Z m 23.0957,0 v 23.376953 h 23.03321 V 68.853516 Z m 23.63282,0 v 23.376953 h 23.0332 V 68.853516 Z m 23.82812,0 v 23.376953 h 23.0332 V 68.853516 Z m 23.63281,0 v 23.376953 h 23.03321 V 68.853516 Z m 23.92383,0 v 23.376953 h 23.0332 V 68.853516 Z m 23.63281,0 v 23.376953 h 23.03321 V 68.853516 Z m 24.42774,0 v 23.376953 h 23.0332 V 68.853516 Z m 23.63281,0 v 23.376953 h 23.0332 V 68.853516 Z M 411.56693,93.023438 v 23.376952 h 23.0332 V 93.023438 Z m 23.63281,0 v 23.376952 h 23.0332 V 93.023438 Z m 23.82812,0 v 23.376952 h 23.03321 V 93.023438 Z m 23.63282,0 v 23.376952 h 23.0332 V 93.023438 Z m 23.0957,0 v 23.376952 h 23.0332 V 93.023438 Z m 23.63281,0 v 23.376952 h 23.0332 V 93.023438 Z m 23.82813,0 v 23.376952 h 23.0332 V 93.023438 Z m 23.63281,0 v 23.376952 h 23.0332 V 93.023438 Z m 23.92383,0 v 23.376952 h 23.0332 V 93.023438 Z m 23.63281,0 v 23.376952 h 23.0332 V 93.023438 Z m 24.42773,0 v 23.376952 h 23.03321 V 93.023438 Z m 23.63282,0 v 23.376952 h 23.0332 V 93.023438 Z"
             transform="translate(189.80653)" />
        </g>
        <path
           style="fill:#d6cfac;fill-opacity:1;stroke:#000000;stroke-width:2;stroke-dasharray:none;stroke-opacity:1"
           d="m 758.63738,49.998724 -0.29297,64.906126 -12.66314,2.11215 -0.19531,-49.620885 z"
           id="path27"
           transform="translate(190.03495)" />
        <path
           style="fill:#d6cfac;fill-opacity:1;stroke:#000000;stroke-width:2;stroke-dasharray:none;stroke-opacity:1"
           d="m 458.70817,116.96012 c 0,0 -15.90858,0.26517 -15.82871,-0.0348 0.60018,-2.25405 0.39063,-68.764034 0.39063,-68.764034 l 15.24276,21.289063 -0.1953,47.900391"
           id="path28"
           transform="translate(190.03495)" />
        <path
           style="fill:#000000;fill-opacity:1;stroke:#000000;stroke-width:2;stroke-dasharray:none;stroke-opacity:1"
           d="M 632.29284,45.932356 949.4314,48.100772 Z"
           id="path29" />
      </g>
      <g
         id="g55"
         transform="translate(655.17862)">
        <g
           id="g37"
           transform="translate(47.460938)">
          <path
             style="display:inline;fill:#ffffff;fill-opacity:1;stroke:#000000;stroke-width:2.03787;stroke-dasharray:none;stroke-opacity:1"
             d="m 648.56842,68.422414 v 48.576396 l 285.84323,0.19375 V 67.701576 Z"
             id="path30"
             transform="translate(-47.460938)" />
          <path
             id="rect34"
             style="fill:#ffffff;fill-opacity:1;stroke:#000000;stroke-width:2.01365;stroke-dasharray:none;stroke-opacity:1"
             d="m 601.27646,68.853516 v 23.376953 h 23.0332 V 68.853516 Z m 23.63281,0 v 23.376953 h 23.0332 V 68.853516 Z m 23.82813,0 v 23.376953 h 23.0332 V 68.853516 Z m 23.63281,0 v 23.376953 h 23.0332 V 68.853516 Z m 23.0957,0 v 23.376953 h 23.0332 V 68.853516 Z m 23.63281,0 v 23.376953 h 23.03321 V 68.853516 Z m 23.82813,0 v 23.376953 h 23.0332 V 68.853516 Z m 23.63281,0 v 23.376953 h 23.0332 V 68.853516 Z m 23.92383,0 v 23.376953 h 23.0332 V 68.853516 Z m 23.63281,0 v 23.376953 h 23.0332 V 68.853516 Z m 24.42774,0 v 23.376953 h 23.0332 V 68.853516 Z m 23.63281,0 v 23.376953 h 23.0332 V 68.853516 Z M 601.37411,93.023438 v 23.376952 h 23.03321 V 93.023438 Z m 23.63282,0 v 23.376952 h 23.0332 V 93.023438 Z m 23.82812,0 v 23.376952 h 23.0332 V 93.023438 Z m 23.63281,0 v 23.376952 h 23.03321 V 93.023438 Z m 23.09571,0 v 23.376952 h 23.0332 V 93.023438 Z m 23.63281,0 v 23.376952 h 23.0332 V 93.023438 Z m 23.82812,0 v 23.376952 h 23.03321 V 93.023438 Z m 23.63282,0 v 23.376952 h 23.0332 V 93.023438 Z m 23.92383,0 v 23.376952 h 23.0332 V 93.023438 Z m 23.63281,0 v 23.376952 h 23.0332 V 93.023438 Z m 24.42773,0 V 116.40039 H 861.6749 V 93.023438 Z m 23.63281,0 v 23.376952 h 23.03321 V 93.023438 Z" />
        </g>
        <path
           style="fill:#d6cfac;fill-opacity:1;stroke:#000000;stroke-width:2;stroke-dasharray:none;stroke-opacity:1"
           d="m 758.36117,50.136831 -0.98351,64.768019 -11.69639,2.11215 -0.19531,-49.620885 z"
           id="path53"
           transform="translate(190.03495)" />
        <path
           style="fill:#d6cfac;fill-opacity:1;stroke:#000000;stroke-width:2;stroke-dasharray:none;stroke-opacity:1"
           d="m 458.70817,116.96012 c 0,0 -15.90858,0.26517 -15.82871,-0.0348 0.60018,-2.25405 0.39063,-68.764034 0.39063,-68.764034 l 15.24276,21.289063 -0.1953,47.900391"
           id="path54"
           transform="translate(190.03495)" />
        <path
           style="display:inline;fill:#000000;fill-opacity:1;stroke:#000000;stroke-width:2;stroke-dasharray:none;stroke-opacity:1"
           d="M 632.29284,45.932356 949.4314,48.100772 Z"
           id="path55" />
      </g>
      <path
         style="fill:#e6e0c9;fill-opacity:1;stroke:none;stroke-width:0.552427"
         d="m 1296.4598,57.318326 c -3.9217,-5.502325 -7.0688,-10.065724 -6.9937,-10.140886 0.075,-0.07516 19.6288,0.0014 43.4524,0.170051 23.8236,0.16869 60.4064,0.427529 81.2951,0.575199 20.8886,0.147669 57.8667,0.393619 82.1735,0.546555 24.3068,0.152936 50.5644,0.355988 58.3501,0.451227 l 14.0095,0.0023 0.1465,8.932838 v 8.76194 l -78.5137,0.182405 c -43.1826,0.100323 -102.8758,0.258957 -132.6516,0.35252 L 1303.59,67.32259 Z"
         id="path5" />
      <path
         style="fill:#e6e0c9;fill-opacity:1;stroke:none;stroke-width:0.552427;stroke-opacity:1"
         d="m 1568.8032,57.76909 v -8.81442 l 12.8648,0.109804 c 6.8741,0.05867 14.3993,0.113328 16.7222,0.20716 l 4.2234,0.170603 -6.2871,8.452848 -6.2872,8.452848 -4.2892,0.177906 c -2.3591,0.09785 -7.0548,0.178321 -10.435,0.178827 l -6.5119,0.12299 z"
         id="path7" />
      <path
         style="fill:#e6e0c9;fill-opacity:1;stroke:none;stroke-width:0.0690534;stroke-opacity:1"
         d="m 884.09633,57.194951 c -4.01319,-5.605861 -7.28726,-10.201923 -7.27571,-10.213472 0.0196,-0.01964 7.06307,0.01881 17.71434,0.09669 2.52563,0.01847 8.06458,0.05649 12.30877,0.08449 4.2442,0.02801 8.89365,0.06132 10.33212,0.07402 l 2.85708,0.0231 v 10.020213 10.020213 l -4.20362,0.022 c -2.17907,0.0114 -8.56867,0.03173 -14.19911,0.04361 l -10.23717,0.02161 z"
         id="path8" />
      <path
         style="fill:#e6e0c9;fill-opacity:1;stroke:none;stroke-width:0.390625;stroke-opacity:1"
         d="m 919.92188,57.34484 v -9.981559 l 4.63867,0.0015 c 2.55127,8.12e-4 22.74414,0.130197 44.87304,0.287523 22.12891,0.157327 53.98931,0.378276 70.80081,0.490999 16.8115,0.112724 41.6845,0.290453 55.2734,0.394954 13.5889,0.104502 27.0581,0.190506 29.9317,0.19112 l 5.2246,0.0011 v 8.957283 8.957284 l -32.5684,0.12453 c -17.9126,0.06849 -53.9697,0.168702 -80.1269,0.22269 -26.15728,0.05399 -58.91851,0.151256 -72.80278,0.21615 l -25.24414,0.117992 z"
         id="path9" />
      <path
         style="fill:#e6e0c9;fill-opacity:1;stroke:none;stroke-width:0.390625;stroke-opacity:1"
         d="m 1130.6641,57.71646 v -8.982759 l 14.3066,0.118647 c 7.8687,0.06526 21.4269,0.174391 30.1294,0.242524 l 15.8227,0.123878 -6.4921,8.59375 -6.4922,8.59375 -2.5923,0.123411 c -1.4258,0.06788 -12.0625,0.133794 -23.6372,0.146485 l -21.0449,0.02307 z"
         id="path15" />
      <path
         style="fill:#e6e0c9;fill-opacity:1;stroke:none;stroke-width:0.276214;stroke-opacity:1"
         d="m 478.74347,57.291965 -7.18529,-10.059442 0.83238,-0.03962 c 0.74196,-0.03532 117.64423,1.279153 144.67059,1.626707 5.8868,0.0757 11.96178,0.138004 13.49994,0.138447 l 2.79666,8.05e-4 v 8.96071 8.96071 l -5.6969,0.08249 c -3.1333,0.04537 -23.50232,0.114875 -45.2645,0.154465 -21.76218,0.03959 -52.3701,0.108475 -68.0176,0.153079 l -28.45,0.0811 z"
         id="path16" />
      <path
         style="fill:#e6e0c9;fill-opacity:1;stroke:none;stroke-width:0.276214;stroke-opacity:1"
         d="m 633.35775,57.937085 v -8.975656 l 3.97057,0.07451 c 2.18382,0.04098 14.97078,0.195661 28.41548,0.343735 44.55013,0.490655 48.71144,0.53902 54.03428,0.628018 l 5.28258,0.08833 v 8.31639 8.31639 l -32.00624,0.09194 c -17.60344,0.05057 -38.2366,0.09195 -45.85146,0.09197 l -13.84521,3.3e-5 z"
         id="path17" />
      <path
         style="fill:#e6e0c9;fill-opacity:1;stroke:none;stroke-width:0.276214;stroke-opacity:1"
         d="m 725.06066,58.441842 v -8.378129 h 0.8709 c 2.04613,0 48.86059,0.548277 53.92297,0.63153 3.05734,0.05028 5.5588,0.117574 5.5588,0.149543 0,0.03197 -2.96272,3.598191 -6.58382,7.924935 l -6.58382,7.866807 -14.58104,1.16e-4 c -8.01958,6.3e-5 -18.63621,0.04134 -23.59252,0.09172 l -9.01147,0.09161 z"
         id="path18" />
    </g>
    <g
       id="g118"
       transform="matrix(0.86343536,0,0,0.85867352,-331.13742,-28.405873)"
       style="display:inline"
       inkscape:label="lavice levá přední">
      <g
         id="g106"
         transform="matrix(1.2036086,0,0,1.2036086,-118.26449,-68.109855)"
         style="fill:#57290b;fill-opacity:1">
        <path
           style="fill:#57290b;fill-opacity:1;stroke:#000000;stroke-width:2"
           d="m 1118.9326,834.31821 -0.4658,-101.5625 h 23.122 l -0.049,101.5625 z"
           id="path94" />
        <path
           style="fill:#57290b;fill-opacity:1;stroke:#000000;stroke-width:2.16012"
           d="m 803.20191,892.82012 -0.46255,-119.30268 h 22.96172 l -0.0485,119.30268 z"
           id="path97" />
        <path
           style="fill:#57290b;fill-opacity:1;stroke:#000000;stroke-width:2.14034"
           d="m 1073.2735,892.29226 -0.4629,-117.02754 h 22.9815 l -0.049,117.02754 z"
           id="path105" />
        <path
           style="fill:#7a3e12;fill-opacity:1;stroke:#000000;stroke-width:2.6086"
           d="m 803.95474,772.33157 290.61496,1.15497 44.4182,-40.44874 -279.55818,-2.92277 z"
           id="path106" />
      </g>
      <g
         id="g111"
         transform="translate(309.10494,-22.275152)">
        <path
           style="fill:#ac4400;fill-opacity:1;stroke:#000000;stroke-width:3.13894"
           d="m 693.06242,928.43264 c -10e-5,0.26415 -2.12616,74.74716 -2.12616,74.74716 h 12.4067 v -74.77944 z"
           id="path107" />
        <path
           id="path108"
           style="display:inline;fill:#ac4400;fill-opacity:1;stroke:#000000;stroke-width:2"
           d="m 591.36472,875.78026 c -5.07487,0 -9.16016,4.08529 -9.16016,9.16016 v 39.13672 c 9.35694,0.40642 126.5625,-1.22657 126.5625,-1.22657 0,0 0.78125,-20.87921 0.78125,-37.91015 0,-5.07487 -4.08529,-9.16016 -9.16016,-9.16016 z" />
        <path
           style="fill:#ac4400;fill-opacity:1;stroke:#000000;stroke-width:2.67565"
           d="m 600.85578,973.14904 25.09167,-45.59413 77.18519,0.34057 L 688.9368,974.74 Z"
           id="path109" />
        <path
           style="fill:#ac4400;fill-opacity:1;stroke:#000000;stroke-width:4.27959"
           d="m 601.54408,889.16765 c -9e-5,0.49345 -2.11569,139.62985 -2.11569,139.62985 h 12.34558 V 889.10735 Z"
           id="path110" />
        <path
           style="fill:#ac4400;fill-opacity:1;stroke:#000000;stroke-width:4.27959"
           d="m 681.0936,888.89143 c -9e-5,0.49345 -2.11569,139.62987 -2.11569,139.62987 h 12.34558 V 888.83113 Z"
           id="path111" />
      </g>
      <g
         id="g117"
         transform="translate(455.22309,-22.409193)">
        <path
           style="fill:#ac4400;fill-opacity:1;stroke:#000000;stroke-width:3.13894"
           d="m 693.06242,928.43264 c -10e-5,0.26415 -2.12616,74.74716 -2.12616,74.74716 h 12.4067 v -74.77944 z"
           id="path112" />
        <path
           id="path113"
           style="display:inline;fill:#ac4400;fill-opacity:1;stroke:#000000;stroke-width:2"
           d="m 591.36472,875.78026 c -5.07487,0 -9.16016,4.08529 -9.16016,9.16016 v 39.13672 c 9.35694,0.40642 126.5625,-1.22657 126.5625,-1.22657 0,0 0.78125,-20.87921 0.78125,-37.91015 0,-5.07487 -4.08529,-9.16016 -9.16016,-9.16016 z" />
        <path
           style="fill:#ac4400;fill-opacity:1;stroke:#000000;stroke-width:2.67565"
           d="m 600.85578,973.14904 25.09167,-45.59413 77.18519,0.34057 L 688.9368,974.74 Z"
           id="path114" />
        <path
           style="fill:#ac4400;fill-opacity:1;stroke:#000000;stroke-width:4.27959"
           d="m 601.54408,889.16765 c -9e-5,0.49345 -2.11569,139.62985 -2.11569,139.62985 h 12.34558 V 889.10735 Z"
           id="path115" />
        <path
           style="fill:#ac4400;fill-opacity:1;stroke:#000000;stroke-width:4.27959"
           d="m 681.0936,888.89143 c -9e-5,0.49345 -2.11569,139.62987 -2.11569,139.62987 h 12.34558 V 888.83113 Z"
           id="path116" />
      </g>
    </g>
    <g
       id="g133"
       transform="matrix(0.83665296,0,0,0.83665296,134.68747,-12.155465)"
       style="display:inline"
       inkscape:label="lavice prostředí přední">
      <g
         id="g121"
         transform="matrix(1.2036086,0,0,1.2036086,-118.26449,-68.109855)">
        <path
           style="fill:#57290b;fill-opacity:1;stroke:#000000;stroke-width:2"
           d="m 1118.9326,834.31821 -0.4658,-101.5625 h 23.122 l -0.049,101.5625 z"
           id="path118" />
        <path
           style="fill:#57290b;fill-opacity:1;stroke:#000000;stroke-width:2.16012"
           d="m 803.20191,892.82012 -0.46255,-119.30268 h 22.96172 l -0.0485,119.30268 z"
           id="path119" />
        <path
           style="fill:#57290b;fill-opacity:1;stroke:#000000;stroke-width:2.14034"
           d="m 1073.2735,892.29226 -0.4629,-117.02754 h 22.9815 l -0.049,117.02754 z"
           id="path120" />
        <path
           style="fill:#7a3e12;fill-opacity:1;stroke:#000000;stroke-width:2.6086"
           d="m 803.95474,772.33157 290.61496,1.15497 44.4182,-40.44874 -279.55818,-2.92277 z"
           id="path121" />
      </g>
      <g
         id="g126"
         transform="translate(309.10494,-22.275152)">
        <path
           style="fill:#ac4400;fill-opacity:1;stroke:#000000;stroke-width:3.13894"
           d="m 693.06242,928.43264 c -10e-5,0.26415 -2.12616,74.74716 -2.12616,74.74716 h 12.4067 v -74.77944 z"
           id="path122" />
        <path
           id="path123"
           style="display:inline;fill:#ac4400;fill-opacity:1;stroke:#000000;stroke-width:2"
           d="m 591.36472,875.78026 c -5.07487,0 -9.16016,4.08529 -9.16016,9.16016 v 39.13672 c 9.35694,0.40642 126.5625,-1.22657 126.5625,-1.22657 0,0 0.78125,-20.87921 0.78125,-37.91015 0,-5.07487 -4.08529,-9.16016 -9.16016,-9.16016 z" />
        <path
           style="fill:#ac4400;fill-opacity:1;stroke:#000000;stroke-width:2.67565"
           d="m 600.85578,973.14904 25.09167,-45.59413 77.18519,0.34057 L 688.9368,974.74 Z"
           id="path124" />
        <path
           style="fill:#ac4400;fill-opacity:1;stroke:#000000;stroke-width:4.27959"
           d="m 601.54408,889.16765 c -9e-5,0.49345 -2.11569,139.62985 -2.11569,139.62985 h 12.34558 V 889.10735 Z"
           id="path125" />
        <path
           style="fill:#ac4400;fill-opacity:1;stroke:#000000;stroke-width:4.27959"
           d="m 681.0936,888.89143 c -9e-5,0.49345 -2.11569,139.62987 -2.11569,139.62987 h 12.34558 V 888.83113 Z"
           id="path126" />
      </g>
      <g
         id="g131"
         transform="translate(455.22309,-22.409193)">
        <path
           style="fill:#ac4400;fill-opacity:1;stroke:#000000;stroke-width:3.13894"
           d="m 693.06242,928.43264 c -10e-5,0.26415 -2.12616,74.74716 -2.12616,74.74716 h 12.4067 v -74.77944 z"
           id="path127" />
        <path
           id="path128"
           style="display:inline;fill:#ac4400;fill-opacity:1;stroke:#000000;stroke-width:2"
           d="m 591.36472,875.78026 c -5.07487,0 -9.16016,4.08529 -9.16016,9.16016 v 39.13672 c 9.35694,0.40642 126.5625,-1.22657 126.5625,-1.22657 0,0 0.78125,-20.87921 0.78125,-37.91015 0,-5.07487 -4.08529,-9.16016 -9.16016,-9.16016 z" />
        <path
           style="fill:#ac4400;fill-opacity:1;stroke:#000000;stroke-width:2.67565"
           d="m 600.85578,973.14904 25.09167,-45.59413 77.18519,0.34057 L 688.9368,974.74 Z"
           id="path129" />
        <path
           style="fill:#ac4400;fill-opacity:1;stroke:#000000;stroke-width:4.27959"
           d="m 601.54408,889.16765 c -9e-5,0.49345 -2.11569,139.62985 -2.11569,139.62985 h 12.34558 V 889.10735 Z"
           id="path130" />
        <path
           style="fill:#ac4400;fill-opacity:1;stroke:#000000;stroke-width:4.27959"
           d="m 681.0936,888.89143 c -9e-5,0.49345 -2.11569,139.62987 -2.11569,139.62987 h 12.34558 V 888.83113 Z"
           id="path131" />
      </g>
    </g>
    <g
       id="g85"
       transform="matrix(1.0830407,0,0,1.0830407,-271.11073,-90.546146)"
       style="display:inline;fill:#ac4400;fill-opacity:1"
       inkscape:label="lavice prostřední zadní">
      <g
         id="g74"
         transform="matrix(1.2036086,0,0,1.2036086,-118.26449,-68.109855)"
         style="fill:#57290b;fill-opacity:1">
        <path
           style="fill:#57290b;fill-opacity:1;stroke:#000000;stroke-width:2"
           d="m 1118.9326,834.31821 -0.4658,-101.5625 h 23.122 l -0.049,101.5625 z"
           id="path71" />
        <path
           style="fill:#57290b;fill-opacity:1;stroke:#000000;stroke-width:2.16012"
           d="m 803.20191,892.82012 -0.46255,-119.30268 h 22.96172 l -0.0485,119.30268 z"
           id="path72" />
        <path
           style="fill:#57290b;fill-opacity:1;stroke:#000000;stroke-width:2.14034"
           d="m 1073.2735,892.29226 -0.4629,-117.02754 h 22.9815 l -0.049,117.02754 z"
           id="path73" />
        <path
           style="fill:#7a3e12;fill-opacity:1;stroke:#000000;stroke-width:2.6086"
           d="m 803.95474,772.33157 290.61496,1.15497 44.4182,-40.44874 -279.55818,-2.92277 z"
           id="path74" />
      </g>
      <g
         id="g79"
         transform="translate(309.10494,-22.275152)"
         style="fill:#ac4400;fill-opacity:1">
        <path
           style="fill:#ac4400;fill-opacity:1;stroke:#000000;stroke-width:3.13894"
           d="m 693.06242,928.43264 c -10e-5,0.26415 -2.12616,74.74716 -2.12616,74.74716 h 12.4067 v -74.77944 z"
           id="path75" />
        <path
           id="path76"
           style="display:inline;fill:#ac4400;fill-opacity:1;stroke:#000000;stroke-width:2"
           d="m 591.36472,875.78026 c -5.07487,0 -9.16016,4.08529 -9.16016,9.16016 v 39.13672 c 9.35694,0.40642 126.5625,-1.22657 126.5625,-1.22657 0,0 0.78125,-20.87921 0.78125,-37.91015 0,-5.07487 -4.08529,-9.16016 -9.16016,-9.16016 z" />
        <path
           style="fill:#ac4400;fill-opacity:1;stroke:#000000;stroke-width:2.67565"
           d="m 600.85578,973.14904 25.09167,-45.59413 77.18519,0.34057 L 688.9368,974.74 Z"
           id="path77" />
        <path
           style="fill:#ac4400;fill-opacity:1;stroke:#000000;stroke-width:4.27959"
           d="m 601.54408,889.16765 c -9e-5,0.49345 -2.11569,139.62985 -2.11569,139.62985 h 12.34558 V 889.10735 Z"
           id="path78" />
        <path
           style="fill:#ac4400;fill-opacity:1;stroke:#000000;stroke-width:4.27959"
           d="m 681.0936,888.89143 c -9e-5,0.49345 -2.11569,139.62987 -2.11569,139.62987 h 12.34558 V 888.83113 Z"
           id="path79" />
      </g>
      <g
         id="g84"
         transform="translate(455.22309,-22.409193)"
         style="fill:#ac4400;fill-opacity:1">
        <path
           style="fill:#ac4400;fill-opacity:1;stroke:#000000;stroke-width:3.13894"
           d="m 693.06242,928.43264 c -10e-5,0.26415 -2.12616,74.74716 -2.12616,74.74716 h 12.4067 v -74.77944 z"
           id="path80" />
        <path
           id="path81"
           style="display:inline;fill:#ac4400;fill-opacity:1;stroke:#000000;stroke-width:2"
           d="m 591.36472,875.78026 c -5.07487,0 -9.16016,4.08529 -9.16016,9.16016 v 39.13672 c 9.35694,0.40642 126.5625,-1.22657 126.5625,-1.22657 0,0 0.78125,-20.87921 0.78125,-37.91015 0,-5.07487 -4.08529,-9.16016 -9.16016,-9.16016 z" />
        <path
           style="fill:#ac4400;fill-opacity:1;stroke:#000000;stroke-width:2.67565"
           d="m 600.85578,973.14904 25.09167,-45.59413 77.18519,0.34057 L 688.9368,974.74 Z"
           id="path82" />
        <path
           style="fill:#ac4400;fill-opacity:1;stroke:#000000;stroke-width:4.27959"
           d="m 601.54408,889.16765 c -9e-5,0.49345 -2.11569,139.62985 -2.11569,139.62985 h 12.34558 V 889.10735 Z"
           id="path83" />
        <path
           style="fill:#ac4400;fill-opacity:1;stroke:#000000;stroke-width:4.27959"
           d="m 681.0936,888.89143 c -9e-5,0.49345 -2.11569,139.62987 -2.11569,139.62987 h 12.34558 V 888.83113 Z"
           id="path84" />
      </g>
    </g>
    <g
       id="g20"
       transform="matrix(1.3843615,0,0,1.2720809,-658.01812,-253.0305)"
       style="display:inline;fill:#ffffff"
       inkscape:label="sloup">
      <path
         style="fill:#e6e0c9;fill-opacity:1;stroke:#000000;stroke-width:1.54335;stroke-dasharray:none;stroke-opacity:1"
         d="m 662.57842,269.55472 95.75063,-6.45821 3.02852,631.13207 -99.18308,-11.69327 z"
         id="path86" />
      <path
         style="fill:#d6cfac;fill-opacity:1;stroke:#000000;stroke-width:1.53458;stroke-dasharray:none;stroke-opacity:1"
         d="m 762.24178,894.38935 48.27644,-48.1108 0.58879,-519.4346 -52.31452,-62.82219 z"
         id="path87" />
    </g>
    <g
       id="g64"
       transform="matrix(1.1093777,0,0,1.1093777,-832.64435,-113.98623)"
       style="display:inline"
       inkscape:label="lavice levá zadní">
      <g
         id="g58"
         transform="matrix(1.2036086,0,0,1.2036086,-118.26449,-68.109851)"
         style="display:inline;fill:#57290b;fill-opacity:1">
        <path
           style="fill:#57290b;fill-opacity:1;stroke:#000000;stroke-width:2"
           d="m 1118.9326,834.31821 -0.4658,-101.5625 h 23.122 l -0.049,101.5625 z"
           id="path64" />
        <path
           style="fill:#57290b;fill-opacity:1;stroke:#000000;stroke-width:2.16012"
           d="m 803.20191,892.82012 -0.46255,-119.30268 h 22.96172 l -0.0485,119.30268 z"
           id="path52" />
        <path
           style="fill:#57290b;fill-opacity:1;stroke:#000000;stroke-width:2.14034"
           d="m 1073.2735,892.29226 -0.4629,-117.02754 h 22.9815 l -0.049,117.02754 z"
           id="path57" />
        <path
           style="fill:#7a3e12;fill-opacity:1;stroke:#000000;stroke-width:2.6086"
           d="m 803.95474,772.33157 290.61496,1.15497 44.4182,-40.44874 -279.55818,-2.92277 z"
           id="path58" />
      </g>
      <g
         id="g63"
         transform="translate(309.10494,-22.275152)">
        <path
           style="fill:#ac4400;fill-opacity:1;stroke:#000000;stroke-width:3.13894"
           d="m 693.06242,928.43264 c -10e-5,0.26415 -2.12616,74.74716 -2.12616,74.74716 h 12.4067 v -74.77944 z"
           id="path59" />
        <path
           id="path60"
           style="display:inline;fill:#ac4400;fill-opacity:1;stroke:#000000;stroke-width:2"
           d="m 591.36472,875.78026 c -5.07487,0 -9.16016,4.08529 -9.16016,9.16016 v 39.13672 c 9.35694,0.40642 126.5625,-1.22657 126.5625,-1.22657 0,0 0.78125,-20.87921 0.78125,-37.91015 0,-5.07487 -4.08529,-9.16016 -9.16016,-9.16016 z" />
        <path
           style="fill:#ac4400;fill-opacity:1;stroke:#000000;stroke-width:2.67565"
           d="m 600.85578,973.14904 25.09167,-45.59413 77.18519,0.34057 L 688.9368,974.74 Z"
           id="path61" />
        <path
           style="fill:#ac4400;fill-opacity:1;stroke:#000000;stroke-width:4.27959"
           d="m 601.54408,889.16765 c -9e-5,0.49345 -2.11569,139.62985 -2.11569,139.62985 h 12.34558 V 889.10735 Z"
           id="path62" />
        <path
           style="fill:#ac4400;fill-opacity:1;stroke:#000000;stroke-width:4.27959"
           d="m 681.0936,888.89143 c -9e-5,0.49345 -2.11569,139.62987 -2.11569,139.62987 h 12.34558 V 888.83113 Z"
           id="path63" />
      </g>
      <g
         id="g69"
         transform="translate(455.22309,-22.409193)">
        <path
           style="fill:#ac4400;fill-opacity:1;stroke:#000000;stroke-width:3.13894"
           d="m 693.06242,928.43264 c -10e-5,0.26415 -2.12616,74.74716 -2.12616,74.74716 h 12.4067 v -74.77944 z"
           id="path65" />
        <path
           id="path66"
           style="display:inline;fill:#ac4400;fill-opacity:1;stroke:#000000;stroke-width:2"
           d="m 591.36472,875.78026 c -5.07487,0 -9.16016,4.08529 -9.16016,9.16016 v 39.13672 c 9.35694,0.40642 126.5625,-1.22657 126.5625,-1.22657 0,0 0.78125,-20.87921 0.78125,-37.91015 0,-5.07487 -4.08529,-9.16016 -9.16016,-9.16016 z" />
        <path
           style="fill:#ac4400;fill-opacity:1;stroke:#000000;stroke-width:2.67565"
           d="m 600.85578,973.14904 25.09167,-45.59413 77.18519,0.34057 L 688.9368,974.74 Z"
           id="path67" />
        <path
           style="fill:#ac4400;fill-opacity:1;stroke:#000000;stroke-width:4.27959"
           d="m 601.54408,889.16765 c -9e-5,0.49345 -2.11569,139.62985 -2.11569,139.62985 h 12.34558 V 889.10735 Z"
           id="path68" />
        <path
           style="fill:#ac4400;fill-opacity:1;stroke:#000000;stroke-width:4.27959"
           d="m 681.0936,888.89143 c -9e-5,0.49345 -2.11569,139.62987 -2.11569,139.62987 h 12.34558 V 888.83113 Z"
           id="path69" />
      </g>
    </g>
    <g
       id="g148"
       transform="matrix(0.79059143,0,0,0.79059143,583.39624,28.52897)"
       style="display:inline"
       inkscape:label="lavice pravá přední">
      <g
         id="g138"
         transform="matrix(1.2036086,0,0,1.2036086,-118.26449,-68.109855)">
        <path
           style="display:inline;fill:#57290b;fill-opacity:1;stroke:#000000;stroke-width:1.92938"
           d="m 1118.8987,826.94874 -0.4673,-94.22835 h 23.1927 l -0.05,94.22835 z"
           id="path133" />
        <path
           style="fill:#57290b;fill-opacity:1;stroke:#000000;stroke-width:2.16012"
           d="m 803.20191,892.82012 -0.46255,-119.30268 h 22.96172 l -0.0485,119.30268 z"
           id="path134" />
        <path
           style="fill:#57290b;fill-opacity:1;stroke:#000000;stroke-width:2.14034"
           d="m 1071.9673,891.71171 -0.4629,-117.02754 h 22.9815 l -0.049,117.02754 z"
           id="path135" />
        <path
           style="fill:#7a3e12;fill-opacity:1;stroke:#000000;stroke-width:2.6086"
           d="m 803.95474,772.33157 290.61496,1.15497 44.4182,-40.44874 -279.55818,-2.92277 z"
           id="path136" />
      </g>
      <g
         id="g142"
         transform="translate(309.10494,-22.275152)">
        <path
           style="fill:#ac4400;fill-opacity:1;stroke:#000000;stroke-width:3.13894"
           d="m 693.06242,928.43264 c -10e-5,0.26415 -2.12616,74.74716 -2.12616,74.74716 h 12.4067 v -74.77944 z"
           id="path138" />
        <path
           id="path139"
           style="display:inline;fill:#ac4400;fill-opacity:1;stroke:#000000;stroke-width:2"
           d="m 591.36472,875.78026 c -5.07487,0 -9.16016,4.08529 -9.16016,9.16016 v 39.13672 c 9.35694,0.40642 126.5625,-1.22657 126.5625,-1.22657 0,0 0.78125,-20.87921 0.78125,-37.91015 0,-5.07487 -4.08529,-9.16016 -9.16016,-9.16016 z" />
        <path
           style="fill:#ac4400;fill-opacity:1;stroke:#000000;stroke-width:2.67565"
           d="m 600.85578,973.14904 25.09167,-45.59413 77.18519,0.34057 L 688.9368,974.74 Z"
           id="path140" />
        <path
           style="fill:#ac4400;fill-opacity:1;stroke:#000000;stroke-width:4.27959"
           d="m 601.54408,889.16765 c -9e-5,0.49345 -2.11569,139.62985 -2.11569,139.62985 h 12.34558 V 889.10735 Z"
           id="path141" />
        <path
           style="fill:#ac4400;fill-opacity:1;stroke:#000000;stroke-width:4.27959"
           d="m 681.0936,888.89143 c -9e-5,0.49345 -2.11569,139.62987 -2.11569,139.62987 h 12.34558 V 888.83113 Z"
           id="path142" />
      </g>
      <g
         id="g147"
         transform="translate(455.22309,-22.409193)">
        <path
           style="fill:#ac4400;fill-opacity:1;stroke:#000000;stroke-width:3.13894"
           d="m 693.06242,928.43264 c -10e-5,0.26415 -2.12616,74.74716 -2.12616,74.74716 h 12.4067 v -74.77944 z"
           id="path143" />
        <path
           id="path144"
           style="display:inline;fill:#ac4400;fill-opacity:1;stroke:#000000;stroke-width:2"
           d="m 591.36472,875.78026 c -5.07487,0 -9.16016,4.08529 -9.16016,9.16016 v 39.13672 c 9.35694,0.40642 126.5625,-1.22657 126.5625,-1.22657 0,0 0.78125,-20.87921 0.78125,-37.91015 0,-5.07487 -4.08529,-9.16016 -9.16016,-9.16016 z" />
        <path
           style="fill:#ac4400;fill-opacity:1;stroke:#000000;stroke-width:2.67565"
           d="m 600.85578,973.14904 25.09167,-45.59413 77.18519,0.34057 L 688.9368,974.74 Z"
           id="path145" />
        <path
           style="fill:#ac4400;fill-opacity:1;stroke:#000000;stroke-width:4.27959"
           d="m 601.54408,889.16765 c -9e-5,0.49345 -2.11569,139.62985 -2.11569,139.62985 h 12.34558 V 889.10735 Z"
           id="path146" />
        <path
           style="fill:#ac4400;fill-opacity:1;stroke:#000000;stroke-width:4.27959"
           d="m 681.0936,888.89143 c -9e-5,0.49345 -2.11569,139.62987 -2.11569,139.62987 h 12.34558 V 888.83113 Z"
           id="path147" />
      </g>
    </g>
    <g
       id="g162"
       transform="matrix(1.0321512,0,0,1.0321512,304.7722,-38.434612)"
       style="display:inline;fill:#ac4400;fill-opacity:1"
       inkscape:label="lavice pravá zadní">
      <g
         id="g151"
         transform="matrix(1.2036086,0,0,1.2036086,-118.26449,-68.109855)"
         style="fill:#57290b;fill-opacity:1">
        <path
           style="fill:#57290b;fill-opacity:1;stroke:#000000;stroke-width:2"
           d="m 1118.9326,834.31821 -0.4658,-101.5625 h 23.122 l -0.049,101.5625 z"
           id="path148" />
        <path
           style="fill:#57290b;fill-opacity:1;stroke:#000000;stroke-width:2.16012"
           d="m 803.20191,892.82012 -0.46255,-119.30268 h 22.96172 l -0.0485,119.30268 z"
           id="path149" />
        <path
           style="fill:#57290b;fill-opacity:1;stroke:#000000;stroke-width:2.14034"
           d="m 1073.2735,892.29226 -0.4629,-117.02754 h 22.9815 l -0.049,117.02754 z"
           id="path150" />
        <path
           style="fill:#7a3e12;fill-opacity:1;stroke:#000000;stroke-width:2.6086"
           d="m 803.95474,772.33157 290.61496,1.15497 44.4182,-40.44874 -279.55818,-2.92277 z"
           id="path151" />
      </g>
      <g
         id="g156"
         transform="translate(309.10494,-22.275152)"
         style="fill:#ac4400;fill-opacity:1">
        <path
           style="fill:#ac4400;fill-opacity:1;stroke:#000000;stroke-width:3.13894"
           d="m 693.06242,928.43264 c -10e-5,0.26415 -2.12616,74.74716 -2.12616,74.74716 h 12.4067 v -74.77944 z"
           id="path152" />
        <path
           id="path153"
           style="display:inline;fill:#ac4400;fill-opacity:1;stroke:#000000;stroke-width:2"
           d="m 591.36472,875.78026 c -5.07487,0 -9.16016,4.08529 -9.16016,9.16016 v 39.13672 c 9.35694,0.40642 126.5625,-1.22657 126.5625,-1.22657 0,0 0.78125,-20.87921 0.78125,-37.91015 0,-5.07487 -4.08529,-9.16016 -9.16016,-9.16016 z" />
        <path
           style="fill:#ac4400;fill-opacity:1;stroke:#000000;stroke-width:2.67565"
           d="m 600.85578,973.14904 25.09167,-45.59413 77.18519,0.34057 L 688.9368,974.74 Z"
           id="path154" />
        <path
           style="fill:#ac4400;fill-opacity:1;stroke:#000000;stroke-width:4.27959"
           d="m 601.54408,889.16765 c -9e-5,0.49345 -2.11569,139.62985 -2.11569,139.62985 h 12.34558 V 889.10735 Z"
           id="path155" />
        <path
           style="fill:#ac4400;fill-opacity:1;stroke:#000000;stroke-width:4.27959"
           d="m 681.0936,888.89143 c -9e-5,0.49345 -2.11569,139.62987 -2.11569,139.62987 h 12.34558 V 888.83113 Z"
           id="path156" />
      </g>
      <g
         id="g161"
         transform="translate(455.22309,-22.409193)"
         style="fill:#ac4400;fill-opacity:1">
        <path
           style="fill:#ac4400;fill-opacity:1;stroke:#000000;stroke-width:3.13894"
           d="m 693.06242,928.43264 c -10e-5,0.26415 -2.12616,74.74716 -2.12616,74.74716 h 12.4067 v -74.77944 z"
           id="path157" />
        <path
           id="path158"
           style="display:inline;fill:#ac4400;fill-opacity:1;stroke:#000000;stroke-width:2"
           d="m 591.36472,875.78026 c -5.07487,0 -9.16016,4.08529 -9.16016,9.16016 v 39.13672 c 9.35694,0.40642 126.5625,-1.22657 126.5625,-1.22657 0,0 0.78125,-20.87921 0.78125,-37.91015 0,-5.07487 -4.08529,-9.16016 -9.16016,-9.16016 z" />
        <path
           style="fill:#ac4400;fill-opacity:1;stroke:#000000;stroke-width:2.67565"
           d="m 600.85578,973.14904 25.09167,-45.59413 77.18519,0.34057 L 688.9368,974.74 Z"
           id="path159" />
        <path
           style="fill:#ac4400;fill-opacity:1;stroke:#000000;stroke-width:4.27959"
           d="m 601.54408,889.16765 c -9e-5,0.49345 -2.11569,139.62985 -2.11569,139.62985 h 12.34558 V 889.10735 Z"
           id="path160" />
        <path
           style="fill:#ac4400;fill-opacity:1;stroke:#000000;stroke-width:4.27959"
           d="m 681.0936,888.89143 c -9e-5,0.49345 -2.11569,139.62987 -2.11569,139.62987 h 12.34558 V 888.83113 Z"
           id="path161" />
      </g>
    </g>
    <g
       id="g43"
       inkscape:label="myš">
      <ellipse
         style="fill:#2a2a2a;fill-opacity:1;stroke:#000000;stroke-width:0.500786;stroke-dasharray:none"
         id="path36"
         cx="676.37799"
         cy="623.75922"
         rx="9.8742418"
         ry="12.636377" />
      <path
         style="fill:#2a2a2a;fill-opacity:1;stroke:#000000;stroke-width:0.960774;stroke-dasharray:none"
         d="m 676.21224,624.98765 -0.13866,11.17334"
         id="path37" />
      <ellipse
         style="fill:#2a2a2a;fill-opacity:1;stroke:#000000;stroke-width:1;stroke-dasharray:none"
         id="path38"
         cx="676.10028"
         cy="619.04791"
         rx="0.39062497"
         ry="1.6601561" />
      <rect
         style="fill:#000000;fill-opacity:1;stroke:#000000;stroke-width:0.705874;stroke-dasharray:none"
         id="rect38"
         width="1.026548"
         height="1.7589699"
         x="675.58527"
         y="622.1673"
         ry="0.87948495"
         rx="0" />
      <path
         style="fill:none;fill-opacity:1;stroke:#000000;stroke-width:1;stroke-dasharray:none"
         d="m 676.17181,636.32808 -3.46678,2.24609 c -4.65381,-0.99816 -5.32668,-7.96773 -13.96142,-2.99449 l -9.30754,-0.85165 -3.92387,-1.98628 -4.58229,-5.3234 1.10982,-9.68182 -5.51634,-8.7522"
         id="path39" />
    </g>
    <g
       id="g47"
       transform="matrix(1.4663961,0,0,1.4663961,-835.6915,-306.0938)"
       style="display:inline"
       inkscape:label="vypínače">
      <path
         style="opacity:1;fill:#ffffff;fill-opacity:1;stroke:#000000;stroke-width:1.37175;stroke-dasharray:none"
         d="m 1792.5021,615.03872 32.7803,18.33797 0.2471,21.77205 -32.8363,-17.41441 z"
         id="path43" />
      <path
         style="opacity:1;fill:#ffffff;fill-opacity:1;stroke:#000000;stroke-width:1.02206;stroke-dasharray:none"
         d="m 1803.8079,621.19979 -0.1453,22.20974"
         id="path44" />
      <path
         style="opacity:1;fill:#ffffff;fill-opacity:1;stroke:#000000;stroke-width:1;stroke-dasharray:none"
         d="m 1814.516,627.55722 v 21.3375"
         id="path45" />
      <g
         id="g48"
         transform="rotate(-0.25021898,2093.8495,669.96478)">
        <path
           style="opacity:1;fill:#ffffff;fill-opacity:1;stroke:#000000;stroke-width:1;stroke-dasharray:none"
           d="m 1800.9764,626.61128 2e-4,6.78711 -6.2838,-2.55097 2.1334,-6.43342 z"
           id="path46" />
        <path
           style="display:inline;opacity:1;fill:#ffffff;fill-opacity:1;stroke:#000000;stroke-width:1;stroke-dasharray:none"
           d="m 1798.6255,632.59008 2.2534,-6.27176"
           id="path47" />
      </g>
      <g
         id="g132"
         transform="translate(10.758255,6.3197395)">
        <path
           style="opacity:1;fill:#ffffff;fill-opacity:1;stroke:#000000;stroke-width:1;stroke-dasharray:none"
           d="m 1800.9764,626.61128 2e-4,6.78711 -6.2838,-2.55097 2.1334,-6.43342 z"
           id="path117" />
        <path
           style="display:inline;opacity:1;fill:#ffffff;fill-opacity:1;stroke:#000000;stroke-width:1;stroke-dasharray:none"
           d="m 1798.6255,632.59008 2.2534,-6.27176"
           id="path132" />
      </g>
      <g
         id="g163"
         transform="translate(22.045602,10.258554)">
        <path
           style="opacity:1;fill:#ffffff;fill-opacity:1;stroke:#000000;stroke-width:1;stroke-dasharray:none"
           d="m 1800.5649,627.22856 2e-4,6.78711 -6.2838,-2.55097 2.1334,-6.43342 z"
           id="path137" />
        <path
           style="display:inline;opacity:1;fill:#ffffff;fill-opacity:1;stroke:#000000;stroke-width:1;stroke-dasharray:none"
           d="m 1798.2434,633.32493 2.2534,-6.27176"
           id="path162" />
      </g>
    </g>
    <g
       id="g22"
       inkscape:label="šipka"
       transform="translate(0.13258252)">
      <path
         style="fill:#ffffff;fill-opacity:1;stroke:none;stroke-width:3.75685;stroke-linecap:square"
         d="m 1262.795,426.92421 c 0,0.35803 -0.358,1.07409 0,1.07409 0.358,0 -0.1842,-1.38109 0,-1.07409 0.8129,1.35475 0.7491,2.7347 1.6111,4.02783 0.3581,0.53704 0.6177,1.15473 1.0741,1.61113 0.5508,0.55076 1.1298,0.70072 1.6112,1.3426 0.1201,0.16012 0.127,0.39552 0.2685,0.53705 0.6233,0.62334 1.5723,0.82077 2.4167,1.07408 0.2572,0.0772 0.5474,-0.0738 0.8055,0 0.3849,0.10997 0.6816,0.45854 1.0741,0.53705 1.141,0.2282 2.3272,0 3.4908,0 2.7397,0 5.1531,0.005 7.7871,-0.80557 2.3119,-0.71135 3.2705,-0.89047 5.1019,-2.41669 0.248,-0.20661 0.5956,-0.29202 0.8056,-0.53705 1.2056,-1.40646 2.2361,-3.55218 3.2223,-5.10191 0.3077,-0.48352 0.7664,-0.85908 1.0741,-1.3426 0.3223,-0.50657 0.4832,-1.10457 0.8055,-1.61113 0.3077,-0.48353 0.7997,-0.83947 1.0741,-1.34261 0.2711,-0.49697 0.3193,-1.08858 0.537,-1.61113 0.8416,-2.01967 0.8205,-1.1337 1.3427,-3.22226 0.5149,-2.05981 0.026,-1.2763 0.537,-3.49078 0.4593,-1.99048 1.026,-3.95695 1.6111,-5.90747 0.2876,-0.95852 0.2495,-1.99522 0.5371,-2.95374 0.115,-0.38341 0.3965,-0.69929 0.537,-1.07409 0.2592,-0.6911 0.3037,-1.44795 0.5371,-2.14817 0.5436,-1.63101 1.242,-3.23929 1.8796,-4.83339 0.1283,-0.32062 0.7353,-0.7929 0.8056,-1.07408 0.065,-0.26051 -0.065,-0.54506 0,-0.80557 0.031,-0.1228 0.2378,-0.14572 0.2685,-0.26852 0.065,-0.2605 -0.065,-0.54506 0,-0.80557 0.3318,-1.32725 0.2685,0.56195 0.2685,-0.53704 0,-0.50814 0.4095,-0.69143 0.5371,-1.07408 0.085,-0.25475 -0.1201,-0.5654 0,-0.80557 0.057,-0.11322 0.2285,-0.14843 0.2685,-0.26852 0.085,-0.25474 -0.1201,-0.56539 0,-0.80557 0.2262,-0.45236 0.8809,-2.85716 1.0741,-2.95373 0.2401,-0.12009 0.537,0 0.8055,0 0.415,0 1.4771,0.40296 1.6112,0.53704 0.1898,0.18979 0,1.58865 0,1.87965 0,2.11339 0.3317,5.2598 0,7.25008 0.093,0.54635 -0.4426,0.86996 -0.5371,1.34261 -0.1377,0.68852 0.1377,1.45966 0,2.14817 -0.111,0.5551 -0.444,1.05274 -0.537,1.61113 -0.1315,0.78888 -0.112,1.63416 -0.2685,2.4167 -0.2992,1.49568 -0.9116,3.05615 -1.3427,4.56486 -0.2343,0.82021 -0.3736,1.92935 -0.8055,2.68522 -0.2221,0.38857 -0.5684,0.69458 -0.8056,1.07409 -1.1175,1.78802 -1.8362,3.85093 -2.9537,5.63895 -0.4476,0.71606 -0.8518,1.46105 -1.3426,2.14817 -0.2208,0.30901 -0.6172,0.47585 -0.8056,0.80557 -1.4044,2.45775 0.6667,-0.12664 -0.537,1.87965 -0.386,0.64334 -0.9795,1.22608 -1.3426,1.87965 -0.1039,0.18701 -1.7052,3.29403 -1.8797,3.7593 -0.1296,0.34555 -0.1231,0.73488 -0.2685,1.07409 -0.6033,1.40771 -4.7086,7.36505 -5.9075,8.32416 -0.2565,0.20525 -2.7012,1.57506 -2.9537,1.61113 -1.9255,0.27507 -0.7748,-0.36828 -2.6852,0.26853 -0.3798,0.12658 -0.6834,0.4502 -1.0741,0.53704 -0.4369,0.0971 -0.8978,-0.0494 -1.3426,0 -0.3668,0.0408 -0.7161,0.17901 -1.0741,0.26852 -0.6266,0.0895 -1.2499,0.20554 -1.8797,0.26852 -0.8068,0.0807 -5.3168,0.0268 -5.9074,-0.26852 -0.1791,-0.0895 -0.09,-0.44754 -0.2686,-0.53704 -0.2401,-0.12009 -0.5407,0.0441 -0.8055,0 -0.9459,-0.15765 -1.5845,-0.71742 -2.4167,-1.07409 -0.3392,-0.14537 -0.7315,-0.13146 -1.0741,-0.26852 -1.0777,-0.43108 -2.2978,-1.14004 -3.2223,-1.87965 -0.5925,-0.47406 -0.911,-1.03575 -1.3426,-1.61113 -0.4229,-0.56388 -0.9197,-1.04725 -1.3426,-1.61113 -1.1437,-1.52495 -1.2563,-3.86488 -1.6111,-5.63895 -0.039,-0.19626 -0.2356,-0.33963 -0.2685,-0.53705 -0.019,-0.11251 -0.1663,-2.51891 0,-2.68521 0.09,-0.0895 0.7793,0.2423 0.8055,0.26852 0.063,0.0633 -0.063,0.20523 0,0.26852 0.063,0.0633 0.1796,-0.01 0.2685,0 0.7173,0.0797 1.4322,0.17902 2.1482,0.26852 z"
         id="path20" />
      <path
         style="fill:#ffffff;fill-opacity:1;stroke:none;stroke-width:3.75685;stroke-linecap:square"
         d="m 1304.9529,389.59971 c -1.4081,1.57802 -3.104,2.83058 -4.8334,4.02783 -1.6525,1.14409 -3.0061,2.51235 -4.5648,3.7593 -0.4476,0.35803 -0.8658,0.75617 -1.3426,1.07409 -0.075,0.0496 -0.2053,-0.0633 -0.2686,0 -0.5489,0.54899 -0.7566,1.86333 -1.6111,2.14817 -0.6673,0.22245 -0.7179,-0.54268 -0.8055,-0.80557 -0.08,-0.24017 -0.3967,-0.32639 -0.5371,-0.53704 -0.09,-0.17901 -0.179,-0.35803 -0.2685,-0.53704 0,-0.0895 0.04,-0.18847 0,-0.26852 -0.9176,-1.83514 -2.0957,-2.57409 -1.3426,-4.83339 0.1266,-0.37975 0.254,-0.79104 0.537,-1.07409 0.2282,-0.2282 0.604,-0.28504 0.8056,-0.53704 0.1768,-0.22102 0.1115,-0.57006 0.2685,-0.80557 0.1784,-0.26754 1.606,-1.87453 1.8797,-2.14817 0.8697,-0.86975 3.4686,-2.46653 4.5648,-2.95374 0.9334,-0.41482 1.9983,-0.66461 2.9538,-1.07408 0.6632,-0.28427 1.2039,-0.82071 1.8796,-1.07409 1.4972,-0.56145 3.4294,-0.50022 4.8334,-1.34261 0.2171,-0.13025 0.3264,-0.39661 0.537,-0.53704 0.074,-0.0497 0.1791,0 0.2686,0 0.179,-0.0895 0.3955,-0.127 0.537,-0.26852 0.063,-0.0633 -0.074,-0.21887 0,-0.26852 0.4075,-0.27165 1.1591,-0.38637 1.6111,-0.53705 0.3062,-0.10205 0.4925,-0.45877 0.8056,-0.53704 0.2605,-0.0651 0.5451,0.0651 0.8056,0 0.3883,-0.0971 0.6857,-0.43996 1.0741,-0.53704 0.4745,-0.11864 1.7526,2.02118 2.1481,2.41669 1.3723,1.37225 -0.3745,-1.1259 1.0741,0.80557 0.2311,0.30815 2.6317,4.08213 2.6852,4.29634 0.065,0.26051 -0.053,0.54226 0,0.80557 0.1137,0.56844 0.6648,1.048 0.8056,1.61113 0.1409,0.56371 0.3509,1.95146 0.537,2.41669 0.1199,0.29964 0.4172,0.50592 0.5371,0.80556 0.268,0.67002 0.1057,1.50112 0.537,2.14818 0.5839,0.87582 1.2455,2.93088 1.6112,4.02782 0.1167,0.35011 0.1034,0.744 0.2685,1.07409 0.04,0.0801 0.3553,0.0217 0.2685,0 -1.8568,-0.46421 -3.7919,-0.70468 -5.639,-1.07409 -1.0805,-0.21611 -0.1233,-0.19595 -0.8055,-0.53704 -0.1601,-0.0801 -0.4105,0.12658 -0.5371,0 -0.1415,-0.14153 -0.1435,-0.38076 -0.2685,-0.53705 -0.9036,-1.12952 -2.2915,-1.89786 -2.9537,-3.22225 -0.3922,-0.78438 -0.7016,-1.67169 -1.0741,-2.4167 -0.1769,-0.3537 -0.6287,-0.72039 -0.8056,-1.07408 -0.04,-0.0801 0.063,-0.20524 0,-0.26853 -0.1346,-0.13461 -0.8296,-0.43893 -1.0741,-0.80556 -0.111,-0.16653 -0.1019,-0.42602 -0.2685,-0.53704 -0.1489,-0.0993 -0.3672,0.0566 -0.537,0 -0.4952,-0.16505 -0.8951,-0.53705 -1.3426,-0.80557 -0.3698,-0.22188 -0.5287,-0.45032 -1.0741,-0.26852 -0.6467,0.21556 -1.2531,0.53704 -1.8797,0.80556 z"
         id="path22" />
    </g>
    <g
       id="g42"
       style="display:inline"
       transform="matrix(1.0024333,0,0,0.99129382,-0.02812772,12.858107)">
      <path
         style="opacity:0.580756;fill:#ffdd55;fill-opacity:1;stroke:#000000;stroke-width:1.19239;stroke-dasharray:none"
         d="M 508.74619,54.617561 152.59402,1073.4604 1039.5244,1076.1439 745.56293,55.110798 Z"
         id="path40"
         sodipodi:nodetypes="ccccc" />
      <path
         style="opacity:0.580756;fill:#ffdd55;fill-opacity:1;stroke:#000000;stroke-width:1.19939;stroke-dasharray:none"
         d="M 914.75243,54.239612 566.61383,1073.2243 1450.0838,1075.4674 1146.6178,56.269887 Z"
         id="path41"
         sodipodi:nodetypes="ccccc" />
      <path
         style="opacity:0.580756;fill:#ffdd55;fill-opacity:1;stroke:#000000;stroke-width:1.22745;stroke-dasharray:none"
         d="M 1329.6771,55.025745 971.40222,1076.4542 1861.2424,1074.397 1564.7366,56.752402 Z"
         id="path42"
         sodipodi:nodetypes="ccccc" />
    </g>
  </g>
</svg>
